<?xml version="1.0" encoding="utf-8"?>
<!-- Generator: Adobe Illustrator 26.0.1, SVG Export Plug-In . SVG Version: 6.00 Build 0)  -->
<svg version="1.1" id="圖層_1" xmlns="http://www.w3.org/2000/svg" xmlns:xlink="http://www.w3.org/1999/xlink" x="0px" y="0px"
	 viewBox="0 0 384 384" style="enable-background:new 0 0 384 384;" xml:space="preserve">
<style type="text/css">
	.st0{fill:#FFFFFF;}
</style>
<g>
	<g>
		<path class="st0" d="M125.2,322.5c-5.8-2-8.1-5.8-7.6-11.3c0.2-3.4,0.1-6.8,0.1-10c-2-0.7-4-1.2-5.7-2.1c-2.9-1.6-4.2-4.1-4.2-7.1
			c0-2.8,0-5.6,0-8.5c-5,0-9.7,0-14.8,0c-0.1,0.7-0.2,1.6-0.2,2.4c0,3.5,0.1,6.9,0,10.5c-0.2,5.1-4.1,8.7-9.8,8.8
			c-6.6,0.1-13.2,0.1-19.7,0c-5.9-0.1-9.9-3.8-10-9c-0.1-4.1,0-8.3,0-11.6c-3-1.8-5.8-3-7.9-4.8c-2.4-2-2-5-2-7.7c0-9,0-18,0-27
			c0.1-10.9,7.3-19,19.4-21.9c1-0.3,2.1-1.4,2.5-2.3c3.5-8.9,6.8-17.8,10.2-26.8c2.9-7.6,7.7-10.6,16.8-10.6
			c23.9,0,47.8-0.1,71.7-0.1c8.1,0,13,3.1,15.6,9.8c0.7,1.7,1.5,3.3,1.9,5.1c0.5,1.9,1.5,2.6,3.7,2.5c5.2-0.1,10.5-0.1,15.6-0.1
			c0.2,0,0.4-0.1,0.9-0.1c1-2.6,2-5.3,3.1-7.9c2.3-5.9,7.5-9.2,14.6-9.2c24.6,0,49.2,0,73.7,0.1c7.4,0,12.7,3.3,15,9.5
			c3.5,9.2,7,18.3,10.5,27.5c0.6,1.6,1.3,2.4,3.4,2.9c9.4,2.2,15.3,7.6,17.9,15.8c0.2,0.6,0.5,1.3,0.7,1.9c0,11.9,0,23.8,0,35.7
			c-1.8,3.9-4.8,6.5-9.9,6.8c0,4.3,0.1,8.5,0,12.6c-0.1,5.3-4.2,9-10.2,9c-6.4,0.1-12.8,0.1-19.2,0c-6.1-0.1-10.1-3.7-10.1-9
			c-0.1-3.3,0-6.7,0-9.9c0-0.9-0.1-1.8-0.2-2.6c-5,0-9.8,0-14.8,0c0,2.7,0.3,5.4-0.1,7.9c-0.3,2.1-0.9,4.6-2.3,6
			c-1.8,1.8-4.6,2.7-7.5,4.3c0,2.7-0.2,6.1,0.1,9.5c0.4,5.4-1.8,9.2-7.6,11.3c-8.1,0-16.3,0-24.4,0c-5.7-1.9-8.1-5.5-7.7-10.9
			c0.3-3.5,0.1-7.1,0.1-10.7c-23.3,0-46.2,0-69.5,0c0,3.7-0.2,7.2,0.1,10.7c0.4,5.4-2,9-7.7,10.9
			C141.5,322.5,133.4,322.5,125.2,322.5z M266.3,291.8c0-0.7,0.1-1.3,0.1-1.8c0-9.3,0.1-18.7,0-28c-0.1-7.9-6.4-13.4-15.4-13.4
			c-39.3,0-78.5,0-117.8,0c-9.1,0-15.4,5.6-15.4,13.7c0,5.8,0,11.7,0,17.6c0,3.9,0,7.9,0,12C167.3,291.8,216.7,291.8,266.3,291.8z
			 M139.6,239.7c35.1,0,69.9,0,104.7,0c-0.1-0.5,0-0.8-0.2-1.2c-3.3-8.6-6.5-17.2-9.8-25.8c-0.9-2.5-3-3.5-6-3.5
			c-24.2,0.1-48.4,0.1-72.6,0.1c-3.8,0-5,0.9-6.3,4.1c-2.6,6.7-5.2,13.5-7.7,20.2C141,235.7,140.3,237.6,139.6,239.7z M309.1,222.5
			c-3.6-9.6-7.1-18.6-10.6-27.7c-0.9-2.1-2.9-2.8-5.3-2.8c-7.4,0-14.7,0-22.1,0c-17,0-33.8,0-50.8-0.1c-2.4,0-4.5,0.4-5.6,2.4
			c-0.9,1.9-1.6,3.9-2.5,6.2c5.9,0,11.4,0,16.9,0c7.1,0.1,12.3,3.3,14.7,9.2c1.3,3.3,2.8,6.7,3.8,10.1c0.6,2,1.6,2.4,3.9,2.4
			c18.1-0.1,36.2-0.1,54.3-0.1C306.6,222.5,307.6,222.5,309.1,222.5z M171.9,200.7c-0.7-1.8-1.2-3.3-1.9-4.8
			c-1.2-3.1-2.5-3.9-6.2-3.9c-24.2,0-48.3,0-72.6,0.1c-3.6,0-5,0.9-6.2,3.9c-2.8,7.2-5.5,14.5-8.2,21.7c-0.5,1.5-1.1,3-1.8,4.8
			c20.3,0,40.3,0,60.5,0c1.4-3.7,2.9-7.5,4.3-11.3c2.8-7.3,7.6-10.4,16.3-10.4C161.3,200.7,166.4,200.7,171.9,200.7z M330.8,274.5
			c0-9.8,0-19.4,0-28.9c0-9.1-6-14.3-16.4-14.3c-19.8,0-39.7,0-59.5,0c-0.9,0-1.9,0-3.1,0c0.9,2.5,1.9,4.6,2.5,6.8
			c0.5,1.5,1.4,1.9,3.1,1.9c6.2-0.1,12.4-0.1,18.6,0c3,0,5.1,1.8,5.2,4.1c0.1,2.5-2,4.3-5.1,4.5c-1.4,0.1-2.8,0-4.3,0
			c1.3,2.8,2.5,5.4,3.8,7.8c0.3,0.5,1.2,0.8,2,1c2.9,1,4.6,3.6,3.1,5.8c-0.9,1.3-2.7,2.2-4.3,3.4c0,2.3,0,5,0,7.8
			C294.5,274.5,312.4,274.5,330.8,274.5z M112.2,248.6c-1.1,0-2.2,0-3.2,0c-3.9,0-6.2-1.6-6.2-4.3s2.2-4.3,6.2-4.3
			c5.9,0,11.8,0.1,17.7-0.1c0.9,0,2.3-0.6,2.6-1.2c1.2-2.3,1.9-4.8,2.9-7.4c-1.2,0-2,0-2.9,0c-20.1,0-40.3,0-60.3,0
			c-9.6,0-15.7,5.4-15.7,13.9c0,9,0,18,0,27c0,0.8,0,1.6,0,2.4c18.4,0,36.4,0,54.4,0c0-2.9,0-5.6,0-8.4c-2.8-0.5-4.9-1.8-4.8-4.6
			c0.1-2.4,1.7-3.8,4.5-4.3c0.5-0.1,1-0.7,1.2-1.2C109.7,253.7,110.9,251.3,112.2,248.6z M82.8,283.5c-6.7,0-13.2,0-19.5,0
			c0,4.3,0,8.5,0,12.7c6.6,0,13,0,19.5,0C82.8,291.9,82.8,287.8,82.8,283.5z M320.6,296.3c0-4.5,0-8.7,0-12.8c-6.6,0-12.9,0-19.4,0
			c0,4.3,0,8.6,0,12.8C307.9,296.3,314.2,296.3,320.6,296.3z M147.2,313.6c0-4.3,0-8.5,0-12.8c-6.6,0-13,0-19.4,0
			c0,4.4,0,8.6,0,12.8C134.4,313.6,140.7,313.6,147.2,313.6z M256.3,313.6c0-4.4,0-8.6,0-12.8c-6.6,0-13,0-19.4,0
			c0,4.3,0,8.6,0,12.8C243.4,313.6,249.8,313.6,256.3,313.6z"/>
		<path class="st0" d="M191.8,174.7c-20.6,0-41.2-0.1-61.8,0c-6.7,0-12-1.9-15.2-7.1c-3.3-5.3-2.2-10.4,1.5-15.3
			c20.8-27.7,41.4-55.5,62.1-83.3c7.4-9.8,20.1-9.9,27.4-0.1c20.8,27.8,41.5,55.6,62.3,83.5c5,6.7,4.2,14.1-1.9,18.9
			c-3.2,2.5-7,3.4-11.2,3.4C233.7,174.7,212.8,174.7,191.8,174.7z M192,166c20.6,0,41.2,0,61.8,0c2.7,0,5.3-0.1,6.8-2.5
			s0.5-4.5-1.1-6.6c-20.7-27.6-41.3-55.4-62-83.1c-3.5-4.7-7.5-4.8-11-0.1c-20.7,27.8-41.4,55.5-62.1,83.3c-1.5,2-2.5,4.1-1.1,6.4
			c1.5,2.4,4,2.6,6.7,2.6C150.7,166,171.3,166,192,166z"/>
		<path class="st0" d="M241.6,283.3c-8.2,0-14.7-5.7-14.8-12.9c-0.1-7.3,6.6-13.2,14.8-13.1c8.1,0,14.8,5.8,14.9,12.9
			C256.5,277.4,249.9,283.3,241.6,283.3z M246.5,270.3c0-2.3-2.3-4.4-5-4.3c-2.6,0-4.7,1.9-4.9,4.1c-0.1,2.4,2,4.4,4.8,4.5
			C244.2,274.6,246.5,272.7,246.5,270.3z"/>
		<path class="st0" d="M157.2,270.2c0.1,7.2-6.4,13-14.6,13.1c-8.4,0.1-15.1-5.6-15.1-12.9c-0.1-7.2,6.7-13.2,14.9-13.1
			C150.6,257.3,157.2,263,157.2,270.2z M147.3,270.2c-0.1-2.4-2.4-4.3-5.1-4.2c-2.6,0.1-4.7,2.1-4.7,4.3c0,2.4,2.3,4.3,5,4.3
			C145.3,274.5,147.4,272.6,147.3,270.2z"/>
		<path class="st0" d="M191.9,265.9c-6.3,0-12.5,0-18.9,0c-3.6,0-5.9-1.8-5.8-4.4c0.1-2.5,2.3-4.2,5.7-4.2c12.7,0,25.3,0,38,0
			c3.6,0,5.9,1.8,5.8,4.4c-0.1,2.5-2.3,4.2-5.7,4.2C204.7,266,198.3,265.9,191.9,265.9z"/>
		<path class="st0" d="M192,283.3c-6.3,0-12.5,0-18.9,0c-3.6,0-5.9-1.7-5.9-4.3s2.3-4.3,5.9-4.3c12.5,0,25.2,0,37.7,0
			c3.6,0,5.9,1.8,6,4.3c0,2.6-2.2,4.3-5.9,4.3C204.6,283.3,198.3,283.3,192,283.3z"/>
		<path class="st0" d="M291.2,253c0-7.2,6.4-13,14.6-13c8.3-0.1,15.1,5.7,15.1,12.9c0.1,7.2-6.7,13.1-14.9,13.1
			C297.8,265.9,291.2,260.2,291.2,253z M311,252.8c-0.1-2.4-2.4-4.3-5.1-4.2c-2.8,0.1-4.8,2-4.6,4.6c0.2,2.3,2.3,4.1,4.9,4.1
			C308.7,257.2,311,255.1,311,252.8z"/>
		<path class="st0" d="M92.9,252.8c0.1,7.2-6.4,13-14.5,13.2c-8.3,0.1-15.1-5.7-15.2-12.9S69.8,240,78.1,240
			C86.2,239.9,92.8,245.6,92.9,252.8z M77.9,248.6c-2.7,0.1-5,2.2-4.8,4.5c0.2,2.2,2.4,4.1,5,4.1c2.7,0,5-2,4.9-4.3
			C82.9,250.4,80.6,248.5,77.9,248.6z"/>
		<path class="st0" d="M187,113.6c0-5,0-10,0-15c0-0.7,0-1.4,0-2c0.2-2.7,2.1-4.4,4.9-4.4s5,1.6,5,4.3c0.1,11.5,0.1,23.1,0,34.6
			c0,2.7-2.1,4.4-4.9,4.4c-2.9,0-5-1.8-5-4.6C187,125.1,187,119.3,187,113.6L187,113.6z"/>
		<path class="st0" d="M191.9,144.3c2.7-0.1,5,1.9,5,4.3c0,2.3-2,4.2-4.6,4.3c-2.8,0.1-5-1.7-5.1-4.1
			C187,146.3,189.2,144.3,191.9,144.3z"/>
	</g>
</g>
</svg>
