<?xml version="1.0" encoding="utf-8"?>
<!-- Generator: Adobe Illustrator 26.0.1, SVG Export Plug-In . SVG Version: 6.00 Build 0)  -->
<svg version="1.1" id="圖層_1" xmlns="http://www.w3.org/2000/svg" xmlns:xlink="http://www.w3.org/1999/xlink" x="0px" y="0px"
	 viewBox="0 0 441.8 441.8" style="enable-background:new 0 0 441.8 441.8;" xml:space="preserve">
<style type="text/css">
	.st0{fill:#FFFFFF;}
</style>
<g>
	<g>
		<path class="st0" d="M441.8,275.1c-4.6,17.1-9.2,34.3-13.8,51.4c-2.2,8.3-4.4,16.6-6.7,24.9c-1.4,5.2-3.8,6.6-8.9,5.4
			c-8.5-2.1-16.9-4.4-25.4-6.7c-4.4-1.2-5.9-3.6-4.9-8c1.3-5.4,2.9-10.8,4.5-16.7c-7.9-2.1-15.7-4.3-23.5-6.4
			c-37.4-10-74.8-20.1-112.2-29.9c-3.1-0.8-4.1-2-4-5.2c0-6.7-0.5-13.5-0.8-20.8c7-1.6,13.1-5.3,15.5-13.4c1.4-4.8,0.9-9.4-1.5-13.7
			c-5.7-10.4-15.5-12.1-28.5-5c-4.1-8.5-8.2-17-12.2-25.6c-0.4-0.9,0.3-2.8,1.1-3.7c18.4-21.5,36.7-43.1,55.4-64.3
			c8.2-9.3,19-12.1,31-9.1c31.7,8,63.4,16.1,95,24.4c13.2,3.5,21,12.3,23.5,25.8c5.2,28.1,10.5,56.1,15.7,84.2
			c0.1,0.4,0.4,0.7,0.7,1.1C441.8,267.6,441.8,271.4,441.8,275.1z M415.8,251.4c-1.2-6.8-2.3-12.6-3.4-18.4
			c-2.9-14.6-5.7-29.3-8.7-43.9c-1.2-5.8-5-9.6-10.6-11.4c-2.3-0.8-4.6-1.6-6.9-2.3c-24.6-6.8-49.3-13.2-73.8-20.4
			c-11-3.2-19.1-0.6-26.2,8.1c-10.3,12.5-21.1,24.6-31.7,36.9c-1.7,2-3.5,4.1-5.5,6.5C304.7,221.7,359.9,236.4,415.8,251.4z
			 M418.6,287.6c0-10.1-8.2-18.5-18.1-18.6c-10.8,0-18.1,7.4-18.2,18.6c-0.1,9.8,8.3,18.3,17.9,18.4
			C410,306,418.6,297.4,418.6,287.6z"/>
		<path class="st0" d="M197.9,335.5c-52.4,0-104.4,0-156.9,0c0,5.4,0,10.6,0,15.9c0,6.4-1.7,8.1-8.2,8.1c-8.3,0-16.7,0-25,0
			c-5.8,0-7.5-1.8-7.5-7.4c0-24.7,0-49.4,0-74.1c0-7.3,1.9-14.1,5-20.7c12-25,23.8-50,35.8-74.9c5.6-11.6,15.1-17.4,27.9-17.5
			c33.5-0.1,66.9-0.1,100.4,0c13.1,0.1,22.9,6.2,28.6,18c12,24.6,23.7,49.4,35.5,74.1c3.5,7.2,5.2,14.8,5.2,22.9
			c-0.1,23.8,0,47.7,0,71.5c0,6.4-1.8,8.2-8.2,8.2c-8.3,0-16.7,0-25,0c-5.7,0-7.4-1.8-7.5-7.5C197.8,346.6,197.9,341.1,197.9,335.5z
			 M205,254.6c-5.8-12.3-11.1-23.8-16.6-35.3c-3.6-7.5-7.2-15-11.2-22.3c-2.5-4.6-6.6-7-11.9-7.3c-3.7-0.2-7.5-0.5-11.2-0.5
			c-24.6,0-49.2,0.2-73.7-0.1c-11-0.2-18.1,4-22.6,14.1C50.6,219.3,42.6,235.1,35,251c-0.5,1.1-0.9,2.3-1.5,3.8
			C90.8,254.6,147.5,254.6,205,254.6z M20.1,293.2c-0.1,10.2,8,18.7,17.9,18.8c10,0.1,18.7-8.5,18.8-18.6
			c0.1-9.8-8.4-18.1-18.6-18.2C28.3,275.1,20.2,283.1,20.1,293.2z M182.1,293.2c0,10.3,7.9,18.7,17.9,18.8
			c10.1,0.1,18.6-8.4,18.6-18.7c0-10-8.3-18.1-18.5-18.2C190.1,275.2,182.1,283.1,182.1,293.2z"/>
		<path class="st0" d="M219.5,167.8c-1.8-13.9-3.6-27.7-5.4-41.6c-1.4-10.7-2.7-21.4-4.1-32c-1.4-10.7-0.3-12.2,10.4-12.1
			c0.7,0,1.4,0,2.2,0c6.5,0,8.5,2.2,7.8,8.7c-1,9.1-2.3,18.2-3.4,27.3c-2,15.7-4,31.3-6,47c-0.1,0.9-0.5,1.8-0.7,2.7
			C219.9,167.9,219.7,167.8,219.5,167.8z"/>
		<path class="st0" d="M205.6,169.6c-10.4-13.7-20.8-27.3-31.2-41c-0.8-1-1.8-1.9-2.3-3.1c-1-2.5-3.2-6.3-2.3-7.4
			c2.2-2.7,5.7-4.8,9.1-5.8c3.4-1,4.7,2.6,5.8,5.2c6.4,15.3,12.8,30.6,19.2,45.9c0.8,1.9,1.6,3.9,2.4,5.8
			C206.1,169.4,205.9,169.5,205.6,169.6z"/>
		<path class="st0" d="M234.7,163.3c0.4-1.2,0.7-2.4,1.2-3.5c6.7-16,13.4-32,20.1-48c2.1-5.1,3.2-5.5,8-3.1
			c9.4,4.6,9.5,5.1,3.1,13.5c-9.8,12.8-19.5,25.6-29.3,38.3c-0.8,1.1-1.7,2.1-2.6,3.1C235.1,163.6,234.9,163.5,234.7,163.3z"/>
	</g>
</g>
</svg>
