<?xml version="1.0" encoding="utf-8"?>
<!-- Generator: Adobe Illustrator 26.0.1, SVG Export Plug-In . SVG Version: 6.00 Build 0)  -->
<svg version="1.1" id="圖層_1" xmlns="http://www.w3.org/2000/svg" xmlns:xlink="http://www.w3.org/1999/xlink" x="0px" y="0px"
	 viewBox="0 0 384 384" style="enable-background:new 0 0 384 384;" xml:space="preserve">
<style type="text/css">
	.st0{fill:#FFFFFF;}
</style>
<g>
	<path class="st0" d="M68.1,312.75c-3.48-5.23-7.27-10.29-10.39-15.73c-17.34-30.29-14.57-70.72,6.66-98.51
		c2.8-3.67,5.76-7.27,9.01-10.54c27.69-27.81,55.25-55.75,83.28-83.22c23.92-23.45,52.72-31.62,85.53-24.78
		c15.45,3.22,29.23,10.27,40.65,21.1c9.82,9.32,19.6,18.89,27.96,29.49c23.22,29.45,23.6,75.16,1.6,105.7
		c-3.06,4.25-6.35,8.42-10.04,12.13c-28.8,28.93-57.31,58.16-86.7,86.48c-33.08,31.87-84.53,33.32-120.25,4.42
		c-0.55-0.45-1.24-0.74-1.86-1.1C85.07,329.72,76.58,321.23,68.1,312.75z M138,138.82c-0.66,0.52-1.01,0.74-1.3,1.03
		c-19.19,19.2-38.71,38.08-57.46,57.69c-24.78,25.92-29.1,64.51-11.49,95.52c8.26,14.54,21.01,25.07,32.8,36.42
		c3,2.89,6.56,5.29,10.13,7.47c32.65,19.89,72.66,15.02,100.21-12.24c18.17-17.98,36.17-36.13,54.25-54.22
		c0.71-0.71,1.34-1.5,2.03-2.29c-0.44-0.54-0.68-0.88-0.96-1.17c-15.77-15.78-31.56-31.52-47.26-47.36c-1.39-1.4-2.38-1.01-3.8-0.4
		c-8.39,3.63-17.62,1.89-23.9-4.42c-6.19-6.22-8.02-15.48-4.4-23.61c0.88-1.98,0.63-3.06-0.88-4.55
		c-13.75-13.63-27.41-27.34-41.1-41.03C142.63,143.45,140.4,141.22,138,138.82z M225.64,210.97c16.64,16.64,32.96,32.96,49.28,49.28
		c8.3-8.3,17.16-15.88,24.49-24.72c23.11-27.89,24.55-67.29,3.98-97.04c-3.71-5.37-8.34-10.11-12.71-15.34
		c-11.78,11.78-22.94,22.91-34.02,34.12c-0.5,0.5-0.55,1.92-0.24,2.68c3.97,9.65,2.16,18.08-5.17,25.4
		c-7.66,7.66-15.32,15.32-22.98,22.98C227.41,209.2,226.54,210.07,225.64,210.97z M147.27,129.26c1.27,0.12,1.86,0.22,2.45,0.22
		c39.12,0.01,78.23,0.02,117.35-0.01c0.89,0,2.05-0.11,2.61-0.66c4.37-4.21,8.63-8.54,13.59-13.5c-2.04-0.73-3.4-1.64-4.75-1.64
		c-37.86-0.08-75.71-0.07-113.57-0.01c-1.12,0-2.5,0.54-3.3,1.31C156.95,119.48,152.39,124.14,147.27,129.26z M229.22,192.12
		c4.9-4.9,9.84-9.78,14.7-14.72c4.91-5,5.11-11.55,0.57-15.95c-4.4-4.28-11-4.04-15.79,0.72c-9.77,9.7-19.51,19.44-29.21,29.21
		c-4.81,4.85-5.04,11.28-0.71,15.75c4.44,4.58,10.92,4.4,15.92-0.52C219.59,201.81,224.38,196.95,229.22,192.12z M257.08,141.51
		c-33.61,0-67.62,0-101.16,0.01c4.14,4.14,8.78,8.88,13.56,13.46c0.78,0.75,2.21,1.17,3.34,1.17c14.83,0.07,29.66,0.08,44.49-0.03
		c1.2-0.01,2.66-0.62,3.54-1.45c7.49-7.13,15.91-8.92,25.52-4.85c0.7,0.29,1.98,0.29,2.45-0.15
		C251.86,146.83,254.75,143.84,257.08,141.51z M267.01,102.3c-16.32-10.65-33.73-15.11-52.71-13.49
		c-13.45,1.15-32.81,8.31-37.04,13.5C206.83,102.3,236.62,102.3,267.01,102.3z M207.71,167.75c-8.48,0.01-16.99,0.02-25.16,0.02
		c3.93,3.93,8.23,8.23,12.57,12.57C199.51,175.95,203.72,171.74,207.71,167.75z"/>
	<path class="st0" d="M221.86,55.39c-1.86,0.22-3.98,1.1-5.51,0.48c-1.55-0.62-3.49-2.66-3.56-4.16c-0.36-7.63-0.3-15.3-0.12-22.94
		c0.07-2.86,2.57-4.74,5.34-4.7c2.72,0.04,5.15,2.04,5.21,4.89c0.15,7.44,0.1,14.89-0.01,22.33
		C223.19,52.45,222.47,53.6,221.86,55.39z"/>
	<path class="st0" d="M195.06,51.14c2.45,2.46,4.95,4.87,7.35,7.38c2.28,2.38,2.39,5.5,0.39,7.65c-2.05,2.22-5.47,2.32-7.91-0.04
		c-5.06-4.91-10.05-9.89-14.95-14.96c-2.31-2.39-2.21-5.49-0.09-7.64c2.22-2.24,5.28-2.19,7.83,0.26
		C190.19,46.18,192.61,48.68,195.06,51.14z"/>
	<path class="st0" d="M248.37,58.64c-2.45,2.45-4.84,4.95-7.35,7.32c-2.62,2.48-5.57,2.52-7.81,0.28c-2.2-2.2-2.23-5.3,0.24-7.85
		c4.81-4.97,9.7-9.86,14.67-14.67c2.52-2.44,5.72-2.42,7.88-0.26c2.18,2.18,2.12,5.26-0.31,7.83
		C253.32,53.8,250.82,56.19,248.37,58.64z"/>
</g>
</svg>
