<?xml version="1.0" encoding="utf-8"?>
<!-- Generator: Adobe Illustrator 26.0.1, SVG Export Plug-In . SVG Version: 6.00 Build 0)  -->
<svg version="1.1" id="圖層_1" xmlns="http://www.w3.org/2000/svg" xmlns:xlink="http://www.w3.org/1999/xlink" x="0px" y="0px"
	 viewBox="0 0 512 512" style="enable-background:new 0 0 512 512;" xml:space="preserve">
<style type="text/css">
	.st0{fill:#6868AC;}
	.st1{opacity:1.000000e-02;fill:#6868AC;enable-background:new    ;}
</style>
<path class="st0" d="M256,0C114.6,0,0,114.6,0,256s114.6,256,256,256s256-114.6,256-256S397.4,0,256,0z M256,461
	c-113.2,0-205-91.8-205-205S142.8,51,256,51s205,91.8,205,205S369.2,461,256,461z"/>
<path class="st0" d="M221,200.2h-0.7c-0.4,3.9-1.3,7.7-2.5,11.4l-21.3,60.6h48.1l-21.4-60.4C222.2,208,221.4,204.2,221,200.2z"/>
<path class="st0" d="M256,113c-79,0-143,64-143,143s64,143,143,143s143-64,143-143S335,113,256,113z M265.6,331.7l-14.3-39.8H190
	l-13.6,39.8h-26.1L208,178.6h26.4l57.3,153.1H265.6z M336.7,198v133.7H313V178.6h23.7V198z"/>
<rect class="st1" width="512" height="512"/>
</svg>
