<?xml version="1.0" encoding="utf-8"?>
<!-- Generator: Adobe Illustrator 26.0.1, SVG Export Plug-In . SVG Version: 6.00 Build 0)  -->
<svg version="1.1" id="圖層_1" xmlns="http://www.w3.org/2000/svg" xmlns:xlink="http://www.w3.org/1999/xlink" x="0px" y="0px"
	 viewBox="0 0 384 384" style="enable-background:new 0 0 384 384;" xml:space="preserve">
<style type="text/css">
	.st0{fill:#FFFFFF;}
</style>
<g>
	<g>
		<path class="st0" d="M167.1,335.5c-0.4-0.3-0.9-0.6-1.4-0.8c-4.7-2.4-6.6-7.3-4.3-12c5.9-12,11.9-24,18-35.9
			c2.3-4.5,7.5-6.1,11.9-3.9c4.2,2.2,6.2,7.2,4,11.7c-6,12.2-11.9,24.2-18.2,36.2c-1,2-3.7,3.2-5.5,4.8
			C170.1,335.5,168.6,335.5,167.1,335.5z"/>
		<path class="st0" d="M247.8,335.5c-7.1-3.7-8.4-7.8-4.8-15c5.5-11.1,11-22.1,16.6-33.2c2.2-4.2,6-6.2,10.1-5.2
			c5.5,1.3,8.8,7,6.3,12.1c-6,12.4-12.2,24.8-18.6,36.9c-1,1.9-3.4,2.9-5.1,4.4C250.8,335.5,249.3,335.5,247.8,335.5z"/>
		<path class="st0" d="M86.5,335.5c-0.5-0.4-1-0.7-1.6-1c-4.4-2.4-6.2-7.2-4-11.6c5.9-12.2,11.9-24.2,18-36.2
			c2.2-4.5,7.4-6,11.8-3.8c4.3,2.1,6.3,7.2,4.2,11.6c-6,12.2-12,24.4-18.3,36.4c-1,2-3.7,3.1-5.6,4.7
			C89.5,335.5,88,335.5,86.5,335.5z"/>
		<path class="st0" d="M225.7,87.4c11.2-3.1,22.1-3,32.9,0.8c21,7.4,34.7,25.9,35.9,48.8c0.1,2,0.6,2.8,2.7,3.3
			c22.6,5.4,38.5,26.4,37.6,49.3c-1,23.9-18.2,43.4-41.5,46.9c-2.9,0.4-6,0.6-8.9,0.6c-57.3,0.1-114.6,0.1-171.9,0
			c-31.2,0-56.4-20.4-62.6-50.4c-6.6-31.8,13-63.7,44.5-72.3c2.6-0.7,3.7-1.6,3.9-4.5c1.9-29,25.7-55.1,54.5-59.8
			c30.3-5,57.6,8.6,72,35.6C225,86.2,225.3,86.6,225.7,87.4z M197.7,219.3c10.4,0,20.7,0,31.1,0c19.5,0,39,0.1,58.5-0.1
			c12.8-0.2,24-9,28-21.2c4.1-12.2,0.1-25.9-10-34.1c-5.8-4.6-12.5-6.8-19.9-7c-6.9-0.2-10.1-4.7-9.4-11.6c0.5-4.4,0.7-9-0.1-13.3
			c-4.6-23-29-35-50.5-25.2c-6.4,2.9-11.4,0.8-13.7-5.7c-8-23.2-29.6-36.6-54-33.6c-24.8,3.1-44.1,27-41.9,51.8
			c0.6,6.5-2.6,10.4-9,11C80.1,132.9,61.4,159,67.7,185c5,20.6,22.6,34.4,44.3,34.4C140.6,219.3,169.2,219.3,197.7,219.3z"/>
		<path class="st0" d="M223.8,304.2c-7.4,0-11.6-6.6-8.9-12.7c2.3-5.1,4.9-10,7.5-15c3.4-6.7,6.7-13.5,10.1-20.2
			c2.6-5.1,7.6-7.1,12.3-4.8c4.6,2.2,6.3,7.5,3.7,12.7c-5.7,11.5-11.5,23-17.2,34.4C229.7,302.1,227,304.1,223.8,304.2z"/>
		<path class="st0" d="M89.2,259.6c-0.5,1.6-0.8,3.2-1.6,4.7c-5.7,11.4-11.3,22.8-17.1,34.2c-2.6,5.2-7.6,7.1-12.3,4.8
			c-4.8-2.3-6.3-7.5-3.7-12.9c5.7-11.6,11.6-23.1,17.4-34.7c2.1-4.1,6-5.9,10.2-4.8C86.2,251.9,88.9,255.4,89.2,259.6z"/>
		<path class="st0" d="M143.5,304.2c-7.5,0.1-11.7-6.6-8.8-12.8c3.1-6.5,6.3-12.8,9.5-19.2c2.6-5.2,5.2-10.5,7.9-15.7
			c2.7-5.3,7.8-7.2,12.5-4.8c4.5,2.4,6,7.6,3.4,12.7c-5.7,11.4-11.4,22.8-17.1,34.2C149.2,302.1,146.6,304.1,143.5,304.2z"/>
		<path class="st0" d="M304.2,304.2c-7.3-0.1-11.6-6.7-8.7-12.7c2.7-5.7,5.6-11.3,8.4-17c3.1-6,6-12.2,9.2-18.2
			c2.6-5.1,7.7-7,12.3-4.6c4.6,2.3,6.1,7.5,3.6,12.7c-5.7,11.4-11.4,22.8-17.1,34.2C310.2,302.1,307.4,304.1,304.2,304.2z"/>
	</g>
</g>
</svg>
