<?xml version="1.0" encoding="utf-8"?>
<!-- Generator: Adobe Illustrator 26.0.1, SVG Export Plug-In . SVG Version: 6.00 Build 0)  -->
<svg version="1.1" id="圖層_1" xmlns="http://www.w3.org/2000/svg" xmlns:xlink="http://www.w3.org/1999/xlink" x="0px" y="0px"
	 viewBox="0 0 384 384" style="enable-background:new 0 0 384 384;" xml:space="preserve">
<style type="text/css">
	.st0{fill:#FFFFFF;}
</style>
<g>
	<path class="st0" d="M284.99,333.59c-0.62,0.36-1.3,0.65-1.86,1.1c-35.72,28.9-87.17,27.44-120.25-4.42
		c-29.39-28.32-57.91-57.55-86.7-86.48c-3.69-3.7-6.97-7.87-10.04-12.13c-21.99-30.54-21.62-76.25,1.6-105.7
		c8.36-10.6,18.14-20.17,27.96-29.49c11.41-10.83,25.2-17.89,40.65-21.1c32.82-6.84,61.61,1.33,85.53,24.78
		c28.02,27.47,55.59,55.41,83.28,83.22c3.25,3.27,6.21,6.87,9.01,10.54c21.22,27.79,24,68.21,6.66,98.51
		c-3.11,5.44-6.91,10.5-10.39,15.73C301.96,316.62,293.48,325.1,284.99,333.59z M233.69,141.06c-13.69,13.69-27.35,27.4-41.1,41.03
		c-1.5,1.49-1.75,2.57-0.88,4.55c3.61,8.13,1.78,17.38-4.4,23.61c-6.28,6.32-15.51,8.05-23.9,4.42c-1.42-0.62-2.41-1.01-3.8,0.4
		c-15.7,15.84-31.5,31.59-47.26,47.36c-0.29,0.29-0.52,0.63-0.96,1.17c0.69,0.78,1.32,1.58,2.03,2.29
		c18.07,18.08,36.07,36.24,54.25,54.22c27.55,27.26,67.56,32.12,100.21,12.24c3.57-2.18,7.13-4.58,10.13-7.47
		c11.79-11.35,24.54-21.88,32.8-36.42c17.61-31,13.29-69.59-11.49-95.52c-18.75-19.62-38.28-38.49-57.46-57.69
		c-0.29-0.29-0.64-0.51-1.3-1.03C238.14,136.61,235.92,138.83,233.69,141.06z M150.26,203.72c-7.66-7.66-15.32-15.32-22.98-22.98
		c-7.33-7.33-9.14-15.75-5.17-25.4c0.31-0.76,0.26-2.18-0.24-2.68c-11.08-11.22-22.24-22.35-34.02-34.12
		c-4.37,5.23-9,9.97-12.71,15.34c-20.56,29.75-19.13,69.15,3.98,97.04c7.33,8.85,16.19,16.43,24.49,24.72
		c16.32-16.32,32.65-32.65,49.28-49.28C152,205.46,151.13,204.59,150.26,203.72z M216.89,110.35c-0.8-0.77-2.18-1.31-3.3-1.31
		c-37.86-0.07-75.71-0.07-113.57,0.01c-1.36,0-2.71,0.91-4.75,1.64c4.96,4.96,9.22,9.29,13.59,13.5c0.57,0.54,1.73,0.66,2.61,0.66
		c39.12,0.03,78.23,0.02,117.35,0.01c0.59,0,1.18-0.1,2.45-0.22C226.15,119.52,221.59,114.87,216.89,110.35z M163.83,201.99
		c5.01,4.92,11.48,5.09,15.92,0.52c4.34-4.47,4.11-10.91-0.71-15.75c-9.7-9.77-19.43-19.51-29.21-29.21
		c-4.79-4.75-11.38-4.99-15.79-0.72c-4.54,4.41-4.34,10.95,0.57,15.95c4.86,4.95,9.8,9.82,14.7,14.72
		C154.16,192.34,158.96,197.2,163.83,201.99z M129.73,145.05c0.47,0.44,1.76,0.45,2.45,0.15c9.61-4.07,18.02-2.28,25.52,4.85
		c0.87,0.83,2.34,1.44,3.54,1.45c14.83,0.1,29.66,0.1,44.49,0.03c1.13-0.01,2.55-0.42,3.34-1.17c4.78-4.58,9.42-9.32,13.56-13.46
		c-33.54,0-67.55,0-101.16-0.01C123.79,139.22,126.69,142.22,129.73,145.05z M201.29,97.69c-4.23-5.19-23.6-12.35-37.04-13.5
		c-18.98-1.62-36.4,2.84-52.71,13.49C141.93,97.69,171.72,97.69,201.29,97.69z M183.43,175.73c4.34-4.34,8.64-8.64,12.57-12.57
		c-8.18-0.01-16.69-0.01-25.16-0.02C174.83,167.13,179.04,171.34,183.43,175.73z"/>
	<path class="st0" d="M156.69,50.78c1.86,0.22,3.98,1.1,5.51,0.48c1.55-0.62,3.49-2.66,3.56-4.16c0.36-7.63,0.3-15.3,0.12-22.94
		c-0.07-2.86-2.57-4.74-5.34-4.7c-2.72,0.04-5.15,2.04-5.21,4.89c-0.15,7.44-0.1,14.89,0.01,22.33
		C155.35,47.84,156.07,48.99,156.69,50.78z"/>
	<path class="st0" d="M183.48,46.52c-2.45,2.46-4.95,4.87-7.35,7.38c-2.28,2.38-2.39,5.5-0.39,7.65c2.05,2.22,5.47,2.32,7.91-0.04
		c5.06-4.91,10.05-9.89,14.95-14.96c2.31-2.39,2.21-5.49,0.09-7.64c-2.22-2.24-5.28-2.19-7.83,0.26
		C188.36,41.57,185.94,44.07,183.48,46.52z"/>
	<path class="st0" d="M130.17,54.02c2.45,2.45,4.84,4.95,7.35,7.32c2.62,2.48,5.57,2.52,7.81,0.28c2.2-2.2,2.23-5.3-0.24-7.85
		c-4.81-4.97-9.7-9.86-14.67-14.67c-2.52-2.44-5.72-2.42-7.88-0.26c-2.18,2.18-2.12,5.26,0.31,7.83
		C125.23,49.18,127.73,51.58,130.17,54.02z"/>
</g>
</svg>
