<?xml version="1.0" encoding="utf-8"?>
<!-- Generator: Adobe Illustrator 26.0.1, SVG Export Plug-In . SVG Version: 6.00 Build 0)  -->
<svg version="1.1" id="圖層_1" xmlns="http://www.w3.org/2000/svg" xmlns:xlink="http://www.w3.org/1999/xlink" x="0px" y="0px"
	 viewBox="0 0 1469.3 825.8" style="enable-background:new 0 0 1469.3 825.8;" xml:space="preserve">
<style type="text/css">
	.st0{fill:#C6C6C6;}
	.st1{fill:#FFFFFF;}
	.st2{fill:#AAAAAA;}
</style>
<g id="road">
	<polygon id="a" class="st0" points="177.5,227 177.5,254.6 177.5,260.5 177.5,598.8 229,598.8 229,227 	"/>
	<polygon id="b" class="st0" points="531.9,177.5 517.1,177.5 325.1,177.5 229,177.5 229,227 325.1,227 406.5,227 531.9,227 
		635.6,227 635.6,177.5 	"/>
	<polygon id="c" class="st0" points="325.1,598.8 281.7,598.8 229,598.8 229,648.3 281.7,648.3 325.1,648.3 406.5,648.3 
		406.5,598.8 	"/>
	<polygon id="d" class="st0" points="455.3,454.1 406.5,454.1 406.5,598.8 455.3,598.8 455.3,559.7 	"/>
	<polygon id="e" class="st0" points="699.4,404.5 455.3,404.5 455.3,454.1 699.4,454.1 778.3,454.1 778.3,404.6 778.3,404.5 	"/>
	<polygon id="f" class="st0" points="455.3,598.8 455.3,648.3 714.2,648.3 778.3,648.3 778.3,598.8 	"/>
	<rect id="g" x="689.2" y="177.5" class="st0" width="89.2" height="49.5"/>
	<polygon id="h_00000143598203160560211120000009998007132099777159_" class="st0" points="827.8,227.1 778.3,227.1 778.3,354.4 
		778.3,404.5 778.3,404.6 827.8,404.6 	"/>
	<polygon id="i" class="st0" points="891.4,177.5 886.8,177.5 827.8,177.5 827.8,227 886.8,227 891.4,227 986.7,227 986.7,177.5 	
		"/>
	<polygon id="j" class="st0" points="920.2,404.7 886.8,404.7 827.8,404.7 827.8,454.1 886.8,454.1 920.2,454.1 986.7,454.1 
		986.7,404.7 	"/>
	<polygon id="k" class="st0" points="878.6,598.8 827.8,598.8 827.8,648.3 827.8,648.3 890.9,648.3 986.7,648.3 986.7,598.8 	"/>
	<rect id="l" x="986.7" y="227.1" class="st0" width="49.5" height="177.5"/>
	<polygon id="m" class="st0" points="1036.2,454.1 986.7,454.1 986.7,532.1 986.7,598.8 1036.2,598.8 1036.2,532.1 	"/>
	<g id="other">
		<polygon class="st0" points="635.6,109.7 635.6,177.5 689.2,177.5 689.2,109.7 689.2,0 635.6,0 		"/>
		<polygon class="st0" points="1191.7,598.8 1116.6,598.8 1036.2,598.8 1036.2,648.3 1191.7,648.3 1469.3,648.3 1469.3,598.8 		"/>
		<polygon class="st0" points="778.3,716 778.3,825.8 827.8,825.8 827.8,716 827.8,648.3 778.3,648.3 		"/>
		<polygon class="st0" points="101.1,177.5 0,177.5 0,227 101.1,227 177.5,227 177.5,177.5 		"/>
		<polygon class="st0" points="177.5,648.3 177.5,598.8 101.1,598.8 0,598.8 0,648.3 101.1,648.3 		"/>
		<polygon class="st0" points="229,648.3 177.5,648.3 177.5,672 177.5,712.3 177.5,825.8 229,825.8 229,696.5 		"/>
		<rect x="986.7" y="0" class="st0" width="49.5" height="177.5"/>
		<g id="road_x5F_block">
			<rect id="road_x5F_block1" x="177.5" y="177.5" class="st0" width="51.5" height="49.5"/>
			<rect id="road_x5F_block2" x="177.5" y="598.8" class="st0" width="51.5" height="49.5"/>
			<rect id="road_x5F_block3" x="406.5" y="404.5" class="st0" width="48.7" height="49.6"/>
			<rect id="road_x5F_block4" x="406.5" y="598.8" class="st0" width="48.7" height="49.5"/>
			<rect id="road_x5F_block5" x="635.6" y="177.5" class="st0" width="53.6" height="49.5"/>
			
			<rect id="road_x5F_block6_00000137127753211347738080000013093148892155207856_" x="778.3" y="177.5" class="st0" width="49.5" height="49.5"/>
			<rect id="road_x5F_block7" x="778.3" y="404.6" class="st0" width="49.5" height="49.5"/>
			<rect id="road_x5F_block8" x="778.3" y="598.8" class="st0" width="49.5" height="49.5"/>
			
			<rect id="road_x5F_block9_00000103975891356790407280000012313438928462031495_" x="986.6" y="404.6" class="st0" width="49.5" height="49.5"/>
			<rect id="road_x5F_block10" x="986.6" y="177.5" class="st0" width="49.5" height="49.5"/>
			<rect id="road_x5F_block11" x="986.7" y="598.8" class="st0" width="49.5" height="49.5"/>
		</g>
	</g>
</g>
<g id="point">
	<circle id="p1" class="st1" cx="203.3" cy="204.3" r="20"/>
	<circle id="p2" class="st1" cx="203.3" cy="623.5" r="20"/>
	<ellipse id="p3" class="st1" cx="430.9" cy="623.5" rx="20" ry="20.5"/>
	<circle id="p4" class="st1" cx="430.9" cy="429.4" r="20"/>
	<circle id="p5" class="st1" cx="662.4" cy="202.3" r="20"/>
	<circle id="p6" class="st1" cx="803.1" cy="204.3" r="20"/>
	<circle id="p6_00000052075407578794682370000002105863002110672565_" class="st1" cx="803.1" cy="429.4" r="20"/>
	<circle id="p7" class="st1" cx="803.1" cy="623.6" r="20"/>
	<ellipse id="p8" class="st1" cx="1011.4" cy="204.3" rx="20" ry="20"/>
	<ellipse id="p9" class="st1" cx="1011.5" cy="429.4" rx="20" ry="20"/>
	<ellipse id="p10" class="st1" cx="1011.4" cy="623.6" rx="20" ry="20"/>
</g>
<g id="event">
	<g id="event_x5F_d">
		<rect id="p1_00000016053741371939887470000003802733167450915717_" x="425.9" y="187.3" class="st2" width="30" height="30"/>
		<path id="p_00000054968892006712208830000012715295379636229803_" d="M442.4,126.7c0.8,0.1,1.6,0.2,2.3,0.3
			c10.2,1.6,17.4,7.1,21.5,16.4c2.7,6,2.8,12.3,0.9,18.6c-1.6,5.2-3.9,10.1-6.7,14.8c-4.9,8.5-10.9,16.2-17.3,23.6
			c-1.5,1.7-3,1.7-4.5,0c-7.3-8.4-14-17.3-19.2-27.1c-2.4-4.5-4.5-9.1-5.4-14.2c-1.9-9.9,1-18.3,8.3-25.2c4.3-4.1,9.6-6.3,15.6-7
			c0.5-0.1,1-0.1,1.5-0.2C440.4,126.7,441.4,126.7,442.4,126.7z M440.8,167.5c7.5,0.1,13.8-5.9,13.9-13.5c0.1-7.5-6-13.7-13.7-13.8
			c-7.5-0.1-13.8,5.9-14,13.4C426.9,161.2,433,167.4,440.8,167.5z"/>
	</g>
	<g id="event_x5F_c">
		<rect id="p2_00000078028087205266080010000016395227831859172255_" x="188.3" y="394.4" class="st2" width="30" height="30"/>
		<path id="p_00000160163696672236556870000016399843196492035764_" d="M204.7,338.2c0.8,0.1,1.6,0.2,2.3,0.3
			c10.2,1.6,17.4,7.1,21.5,16.4c2.7,6,2.8,12.3,0.9,18.6c-1.6,5.2-3.9,10.1-6.7,14.8c-4.9,8.5-10.9,16.2-17.3,23.6
			c-1.5,1.7-3,1.7-4.5,0c-7.3-8.4-14-17.3-19.2-27.1c-2.4-4.5-4.5-9.1-5.4-14.2c-1.9-9.9,1-18.3,8.3-25.2c4.3-4.1,9.6-6.3,15.6-7
			c0.5-0.1,1-0.1,1.5-0.2C202.8,338.2,203.7,338.2,204.7,338.2z M203.2,379.1c7.5,0.1,13.8-6,13.9-13.5c0.1-7.5-6-13.7-13.7-13.8
			c-7.5-0.1-13.8,5.9-13.9,13.5C189.3,372.7,195.4,378.9,203.2,379.1z"/>
	</g>
	<g id="event_x5F_g">
		<rect id="p3_00000070836605789408515520000000087048276370453895_" x="607.8" y="419.4" class="st2" width="30" height="30"/>
		<path id="p_00000088836248170748891270000004611369127793790602_" d="M624.3,359.4c0.8,0.1,1.6,0.2,2.3,0.3
			c10.2,1.6,17.4,7.1,21.5,16.4c2.7,6,2.8,12.3,0.9,18.6c-1.6,5.2-3.9,10.1-6.7,14.8c-4.9,8.5-10.8,16.2-17.3,23.6
			c-1.5,1.7-3,1.7-4.5,0c-7.3-8.4-14-17.3-19.2-27.1c-2.4-4.5-4.5-9.1-5.4-14.2c-1.9-9.9,1-18.3,8.3-25.2c4.3-4.1,9.6-6.3,15.6-7
			c0.5-0.1,1-0.1,1.5-0.2C622.3,359.4,623.3,359.4,624.3,359.4z M622.7,400.2c7.5,0.1,13.8-6,13.9-13.5c0.1-7.5-6-13.7-13.7-13.8
			c-7.5-0.1-13.8,5.9-14,13.5C608.8,393.8,615,400,622.7,400.2z"/>
	</g>
	<g id="event_x5F_e">
		<rect id="p4_00000168113128442430637920000004611662991101189564_" x="607.8" y="608.5" class="st2" width="30" height="30"/>
		<path id="p_00000176035968548884449380000004782742660056410541_" d="M624.3,548.6c0.8,0.1,1.6,0.2,2.3,0.3
			c10.2,1.6,17.4,7.1,21.5,16.4c2.7,6,2.8,12.3,0.9,18.6c-1.6,5.2-3.9,10.1-6.7,14.8c-4.9,8.5-10.8,16.2-17.3,23.6
			c-1.5,1.7-3,1.7-4.5,0c-7.3-8.4-14-17.3-19.2-27.1c-2.4-4.5-4.5-9.1-5.4-14.2c-1.9-9.9,1-18.3,8.3-25.2c4.3-4.1,9.6-6.3,15.6-7
			c0.5-0.1,1-0.1,1.5-0.2C622.3,548.6,623.3,548.6,624.3,548.6z M622.7,589.4c7.5,0.1,13.8-6,13.9-13.5c0.1-7.5-6-13.7-13.7-13.8
			c-7.5-0.1-13.8,5.9-14,13.5C608.8,583.1,615,589.3,622.7,589.4z"/>
	</g>
	<g id="event_x5F_k">
		<rect id="_x32_" x="996.4" y="315.8" class="st2" width="30" height="30"/>
		<path id="p" d="M1012.9,255.8c0.8,0.1,1.6,0.2,2.3,0.3c10.2,1.6,17.4,7.1,21.5,16.4c2.7,6,2.8,12.3,0.9,18.6
			c-1.6,5.2-3.9,10.1-6.7,14.8c-4.9,8.5-10.8,16.2-17.3,23.6c-1.5,1.7-3,1.7-4.5,0c-7.3-8.4-14-17.3-19.2-27.1
			c-2.4-4.5-4.5-9.1-5.4-14.2c-1.9-9.9,1-18.3,8.3-25.2c4.3-4.1,9.6-6.3,15.6-7c0.5-0.1,1-0.1,1.5-0.2
			C1010.9,255.8,1011.9,255.8,1012.9,255.8z M1011.3,296.7c7.5,0.1,13.8-6,13.9-13.5s-6-13.7-13.7-13.8c-7.5-0.1-13.8,5.9-14,13.5
			C997.4,290.3,1003.5,296.5,1011.3,296.7z"/>
	</g>
	<g id="icon_x5F_d">
		<g id="acc_00000132079032762412994770000009216481469708480147_">
			<path d="M474.8,104.3c-0.8,3-1.6,6-2.4,8.9c-0.4,1.4-0.8,2.9-1.2,4.3c-0.2,0.9-0.6,1.2-1.5,0.9c-1.5-0.4-2.9-0.8-4.4-1.2
				c-0.8-0.2-1-0.6-0.9-1.4c0.2-0.9,0.5-1.9,0.8-2.9c-1.4-0.4-2.7-0.7-4.1-1.1c-6.5-1.7-13-3.5-19.5-5.2c-0.5-0.1-0.7-0.3-0.7-0.9
				c0-1.2-0.1-2.3-0.1-3.6c1.2-0.3,2.3-0.9,2.7-2.3c0.2-0.8,0.2-1.6-0.3-2.4c-1-1.8-2.7-2.1-5-0.9c-0.7-1.5-1.4-2.9-2.1-4.4
				c-0.1-0.2,0-0.5,0.2-0.7c3.2-3.7,6.4-7.5,9.6-11.2c1.4-1.6,3.3-2.1,5.4-1.6c5.5,1.4,11,2.8,16.5,4.2c2.3,0.6,3.6,2.1,4.1,4.5
				c0.9,4.9,1.8,9.8,2.7,14.6c0,0.1,0.1,0.1,0.1,0.2C474.8,103,474.8,103.7,474.8,104.3z M470.3,100.2c-0.2-1.2-0.4-2.2-0.6-3.2
				c-0.5-2.5-1-5.1-1.5-7.6c-0.2-1-0.9-1.7-1.8-2c-0.4-0.1-0.8-0.3-1.2-0.4c-4.3-1.2-8.6-2.3-12.8-3.5c-1.9-0.6-3.3-0.1-4.6,1.4
				c-1.8,2.2-3.7,4.3-5.5,6.4c-0.3,0.3-0.6,0.7-1,1.1C451,95,460.6,97.6,470.3,100.2z M470.8,106.5c0-1.8-1.4-3.2-3.1-3.2
				c-1.9,0-3.1,1.3-3.2,3.2c0,1.7,1.4,3.2,3.1,3.2S470.8,108.2,470.8,106.5z"/>
			<path d="M432.5,114.8c-9.1,0-18.1,0-27.3,0c0,0.9,0,1.8,0,2.8c0,1.1-0.3,1.4-1.4,1.4c-1.5,0-2.9,0-4.3,0c-1,0-1.3-0.3-1.3-1.3
				c0-4.3,0-8.6,0-12.9c0-1.3,0.3-2.5,0.9-3.6c2.1-4.3,4.1-8.7,6.2-13c1-2,2.6-3,4.8-3c5.8,0,11.6,0,17.4,0c2.3,0,4,1.1,5,3.1
				c2.1,4.3,4.1,8.6,6.2,12.9c0.6,1.3,0.9,2.6,0.9,4c0,4.1,0,8.3,0,12.4c0,1.1-0.3,1.4-1.4,1.4c-1.5,0-2.9,0-4.3,0
				c-1,0-1.3-0.3-1.3-1.3C432.5,116.7,432.5,115.8,432.5,114.8z M433.7,100.8c-1-2.1-1.9-4.1-2.9-6.1c-0.6-1.3-1.3-2.6-1.9-3.9
				c-0.4-0.8-1.1-1.2-2.1-1.3c-0.6,0-1.3-0.1-1.9-0.1c-4.3,0-8.5,0-12.8,0c-1.9,0-3.1,0.7-3.9,2.4c-1.3,2.8-2.6,5.5-4,8.3
				c-0.1,0.2-0.1,0.4-0.2,0.7C413.9,100.8,423.7,100.8,433.7,100.8z M401.6,107.4c0,1.8,1.4,3.2,3.1,3.3c1.7,0,3.3-1.5,3.3-3.2
				s-1.5-3.2-3.2-3.2C403,104.3,401.6,105.7,401.6,107.4z M429.7,107.5c0,1.8,1.4,3.2,3.1,3.3c1.8,0,3.2-1.5,3.2-3.2
				s-1.4-3.2-3.2-3.2C431.1,104.3,429.7,105.7,429.7,107.5z"/>
			<path d="M436.2,85.7c-0.3-2.4-0.6-4.8-0.9-7.2c-0.2-1.8-0.5-3.7-0.7-5.6s0-2.1,1.8-2.1c0.1,0,0.2,0,0.4,0c1.1,0,1.5,0.4,1.4,1.5
				c-0.2,1.6-0.4,3.2-0.6,4.8c-0.4,2.7-0.7,5.4-1,8.2C436.4,85.4,436.4,85.5,436.2,85.7C436.3,85.7,436.3,85.7,436.2,85.7z"/>
			<path d="M433.8,86c-1.8-2.4-3.6-4.8-5.4-7.1c-0.1-0.2-0.3-0.3-0.4-0.5c-0.2-0.4-0.6-1.1-0.4-1.3c0.4-0.5,1-0.8,1.6-1
				s0.8,0.4,1,0.9c1.1,2.7,2.2,5.3,3.3,8C433.6,85.3,433.8,85.6,433.8,86C433.9,85.9,433.9,86,433.8,86z"/>
			<path d="M438.9,84.9c0.1-0.2,0.1-0.4,0.2-0.6c1.2-2.8,2.3-5.6,3.5-8.3c0.4-0.9,0.5-0.9,1.4-0.5c1.6,0.8,1.6,0.9,0.5,2.3
				c-1.7,2.2-3.4,4.4-5.1,6.7c-0.1,0.2-0.3,0.4-0.4,0.5C438.9,84.9,438.9,84.9,438.9,84.9z"/>
		</g>
		<g id="rain">
			<path d="M433.3,121.7c-0.1-0.1-0.2-0.1-0.3-0.2c-1.1-0.5-1.5-1.6-1-2.7c1.3-2.7,2.7-5.4,4.1-8.1c0.5-1,1.7-1.4,2.7-0.9
				s1.4,1.6,0.9,2.6c-1.3,2.7-2.7,5.5-4.1,8.2c-0.2,0.4-0.8,0.7-1.2,1.1C434,121.7,433.6,121.7,433.3,121.7z"/>
			<path d="M451.5,121.7c-1.6-0.8-1.9-1.8-1.1-3.4c1.2-2.5,2.5-5,3.8-7.5c0.5-0.9,1.4-1.4,2.3-1.2c1.2,0.3,2,1.6,1.4,2.7
				c-1.4,2.8-2.8,5.6-4.2,8.3c-0.2,0.4-0.8,0.7-1.2,1C452.2,121.7,451.9,121.7,451.5,121.7z"/>
			<path d="M415.1,121.7c-0.1-0.1-0.2-0.2-0.4-0.2c-1-0.6-1.4-1.6-0.9-2.6c1.3-2.7,2.7-5.5,4.1-8.2c0.5-1,1.7-1.3,2.6-0.9
				c1,0.5,1.4,1.6,1,2.6c-1.4,2.8-2.7,5.5-4.1,8.2c-0.2,0.4-0.8,0.7-1.3,1.1C415.8,121.7,415.4,121.7,415.1,121.7z"/>
			<path d="M446.5,65.7c2.5-0.7,5-0.7,7.4,0.2c4.7,1.7,7.8,5.9,8.1,11c0,0.4,0.1,0.6,0.6,0.8c5.1,1.2,8.7,6,8.5,11.1
				c-0.2,5.4-4.1,9.8-9.4,10.6c-0.7,0.1-1.3,0.1-2,0.1c-12.9,0-25.9,0-38.8,0c-7,0-12.7-4.6-14.1-11.4c-1.5-7.2,3-14.4,10-16.3
				c0.6-0.2,0.8-0.4,0.9-1c0.4-6.6,5.8-12.4,12.3-13.5c6.8-1.1,13,1.9,16.3,8.1C446.4,65.4,446.5,65.5,446.5,65.7z M440.2,95.5
				c2.3,0,4.7,0,7,0c4.4,0,8.8,0,13.2,0c2.9-0.1,5.4-2,6.3-4.8s0-5.9-2.3-7.7c-1.3-1.1-2.8-1.5-4.5-1.6c-1.6-0.1-2.3-1.1-2.1-2.6
				c0.1-1,0.2-2,0-3c-1-5.2-6.5-7.9-11.4-5.7c-1.5,0.7-2.6,0.2-3.1-1.3c-1.8-5.2-6.7-8.3-12.2-7.6c-5.6,0.7-10,6.1-9.5,11.7
				c0.1,1.5-0.6,2.3-2,2.5c-6,0.6-10.2,6.5-8.8,12.4c1.1,4.7,5.1,7.8,10,7.8C427.3,95.5,433.8,95.5,440.2,95.5z"/>
			<path d="M446.1,114.6c-1.7,0-2.6-1.5-2-2.9c0.5-1.2,1.1-2.3,1.7-3.4c0.8-1.5,1.5-3.1,2.3-4.6c0.6-1.2,1.7-1.6,2.8-1.1
				c1,0.5,1.4,1.7,0.8,2.9c-1.3,2.6-2.6,5.2-3.9,7.8C447.4,114.2,446.8,114.6,446.1,114.6z"/>
			<path d="M415.7,104.6c-0.1,0.3-0.2,0.7-0.4,1.1c-1.3,2.6-2.6,5.2-3.9,7.7c-0.6,1.2-1.7,1.6-2.8,1.1c-1.1-0.5-1.4-1.7-0.8-2.9
				c1.3-2.6,2.6-5.2,3.9-7.8c0.5-0.9,1.4-1.3,2.3-1.1C415,102.8,415.6,103.6,415.7,104.6z"/>
			<path d="M428,114.6c-1.7,0-2.6-1.5-2-2.9c0.7-1.5,1.4-2.9,2.2-4.3c0.6-1.2,1.2-2.4,1.8-3.6c0.6-1.2,1.8-1.6,2.8-1.1
				s1.4,1.7,0.8,2.9c-1.3,2.6-2.6,5.2-3.9,7.7C429.3,114.2,428.7,114.6,428,114.6z"/>
			<path d="M464.3,114.6c-1.6,0-2.6-1.5-2-2.9c0.6-1.3,1.3-2.6,1.9-3.8c0.7-1.4,1.4-2.8,2.1-4.1c0.6-1.2,1.7-1.6,2.8-1.1
				c1,0.5,1.4,1.7,0.8,2.9c-1.3,2.6-2.6,5.2-3.9,7.7C465.6,114.2,465,114.6,464.3,114.6z"/>
		</g>
		<g id="jam">
			<path d="M418.4,122.2c-1.5-0.6-2.1-1.8-2-3.4c0.1-1,0-2,0-3c-0.5-0.2-1.1-0.4-1.5-0.6c-0.8-0.5-1.1-1.2-1.1-2.2
				c0-0.8,0-1.7,0-2.6c-1.3,0-2.6,0-3.9,0c0,0.2,0,0.5,0,0.7c0,1.1,0,2.1,0,3.1c0,1.5-1.1,2.6-2.6,2.7c-1.7,0-3.5,0-5.2,0
				c-1.5,0-2.6-1.1-2.6-2.7c0-1.2,0-2.5,0-3.5c-0.8-0.5-1.5-0.9-2.1-1.4c-0.6-0.6-0.5-1.5-0.5-2.3c0-2.7,0-5.4,0-8.1
				c0-3.3,1.9-5.7,5.1-6.6c0.3-0.1,0.6-0.4,0.7-0.7c0.9-2.7,1.8-5.4,2.7-8.1c0.8-2.3,2-3.2,4.4-3.2c6.3,0,12.6,0,18.9,0
				c2.1,0,3.4,0.9,4.1,3c0.2,0.5,0.4,1,0.5,1.5c0.1,0.6,0.4,0.8,1,0.8c1.4-0.1,2.8,0,4.1,0c0,0,0.1,0,0.2,0c0.3-0.8,0.5-1.6,0.8-2.4
				c0.6-1.8,2-2.8,3.9-2.8c6.5,0,13,0,19.5,0c2,0,3.3,1,4,2.9c0.9,2.8,1.9,5.5,2.8,8.3c0.1,0.5,0.4,0.7,0.9,0.9
				c2.5,0.7,4,2.3,4.7,4.7c0,0.2,0.1,0.4,0.2,0.6c0,3.6,0,7.2,0,10.7c-0.5,1.2-1.3,1.9-2.6,2.1c0,1.3,0,2.6,0,3.8
				c0,1.6-1.1,2.7-2.7,2.7c-1.7,0-3.4,0-5.1,0c-1.6,0-2.7-1.1-2.7-2.7c0-1,0-2,0-3c0-0.3,0-0.5,0-0.8c-1.3,0-2.6,0-3.9,0
				c0,0.8,0.1,1.6,0,2.4c-0.1,0.6-0.2,1.4-0.6,1.8c-0.5,0.5-1.2,0.8-2,1.3c0,0.8-0.1,1.8,0,2.9c0.1,1.6-0.5,2.8-2,3.4
				c-2.1,0-4.3,0-6.4,0c-1.5-0.6-2.1-1.7-2-3.3c0.1-1.1,0-2.1,0-3.2c-6.1,0-12.2,0-18.4,0c0,1.1-0.1,2.2,0,3.2
				c0.1,1.6-0.5,2.7-2,3.3C422.7,122.2,420.6,122.2,418.4,122.2z M455.6,113c0-0.2,0-0.4,0-0.6c0-2.8,0-5.6,0-8.4c0-2.4-1.7-4-4.1-4
				c-10.4,0-20.7,0-31.1,0c-2.4,0-4.1,1.7-4.1,4.1c0,1.8,0,3.5,0,5.3c0,1.2,0,2.4,0,3.6C429.5,113,442.6,113,455.6,113z M422.2,97.3
				c9.3,0,18.4,0,27.6,0c0-0.1,0-0.2,0-0.3c-0.9-2.6-1.7-5.2-2.6-7.8c-0.2-0.8-0.8-1-1.6-1c-6.4,0-12.8,0-19.2,0
				c-1,0-1.3,0.3-1.7,1.2c-0.7,2-1.4,4.1-2,6.1C422.6,96.1,422.4,96.6,422.2,97.3z M467,92.1c-1-2.9-1.9-5.6-2.8-8.3
				c-0.2-0.6-0.8-0.8-1.4-0.8c-1.9,0-3.9,0-5.8,0c-4.5,0-8.9,0-13.4,0c-0.6,0-1.2,0.1-1.5,0.7c-0.2,0.6-0.4,1.2-0.7,1.9
				c1.5,0,3,0,4.5,0c1.9,0,3.3,1,3.9,2.8c0.4,1,0.7,2,1,3.1c0.2,0.6,0.4,0.7,1,0.7c4.8,0,9.6,0,14.3,0
				C466.3,92.1,466.5,92.1,467,92.1z M430.7,85.5c-0.2-0.6-0.3-1-0.5-1.5c-0.3-0.9-0.6-1.2-1.6-1.2c-6.4,0-12.8,0-19.1,0
				c-1,0-1.3,0.3-1.6,1.2c-0.7,2.2-1.5,4.3-2.2,6.5c-0.1,0.4-0.3,0.9-0.5,1.4c5.4,0,10.6,0,16,0c0.4-1.1,0.8-2.2,1.1-3.4
				c0.7-2.2,2-3.1,4.3-3.1C428,85.5,429.3,85.5,430.7,85.5z M472.7,107.7c0-2.9,0-5.8,0-8.7c0-2.7-1.6-4.3-4.3-4.3
				c-5.2,0-10.5,0-15.7,0c-0.2,0-0.5,0-0.8,0c0.2,0.8,0.5,1.4,0.6,2.1c0.1,0.5,0.4,0.6,0.8,0.6c1.6,0,3.3,0,4.9,0
				c0.8,0,1.4,0.5,1.4,1.2c0,0.8-0.5,1.3-1.4,1.4c-0.4,0-0.8,0-1.1,0c0.4,0.8,0.6,1.6,1,2.4c0.1,0.2,0.3,0.2,0.5,0.3
				c0.8,0.3,1.2,1.1,0.8,1.8c-0.2,0.4-0.7,0.7-1.1,1c0,0.7,0,1.5,0,2.3C463.1,107.7,467.8,107.7,472.7,107.7z M415,99.9
				c-0.3,0-0.6,0-0.8,0c-1,0-1.6-0.5-1.6-1.3s0.6-1.3,1.6-1.3c1.6,0,3.1,0,4.7,0c0.2,0,0.6-0.2,0.7-0.4c0.3-0.7,0.5-1.4,0.8-2.2
				c-0.3,0-0.5,0-0.8,0c-5.3,0-10.6,0-15.9,0c-2.5,0-4.1,1.6-4.2,4.2c0,2.7,0,5.4,0,8.1c0,0.2,0,0.5,0,0.7c4.9,0,9.6,0,14.4,0
				c0-0.9,0-1.7,0-2.5c-0.7-0.2-1.3-0.6-1.3-1.4c0-0.7,0.5-1.2,1.2-1.3c0.1,0,0.3-0.2,0.3-0.3C414.3,101.5,414.6,100.8,415,99.9z
				 M407.2,110.4c-1.8,0-3.5,0-5.2,0c0,1.3,0,2.6,0,3.8c1.7,0,3.4,0,5.2,0C407.2,113,407.2,111.7,407.2,110.4z M470,114.3
				c0-1.3,0-2.6,0-3.9c-1.7,0-3.4,0-5.1,0c0,1.3,0,2.6,0,3.9C466.6,114.3,468.3,114.3,470,114.3z M424.2,119.5c0-1.3,0-2.6,0-3.8
				c-1.7,0-3.4,0-5.1,0c0,1.3,0,2.6,0,3.8C420.8,119.5,422.5,119.5,424.2,119.5z M453,119.5c0-1.3,0-2.6,0-3.8c-1.7,0-3.4,0-5.1,0
				c0,1.3,0,2.6,0,3.8C449.6,119.5,451.3,119.5,453,119.5z"/>
			<path d="M436,77.7c-5.4,0-10.9,0-16.3,0c-1.8,0-3.2-0.6-4-2.2c-0.9-1.6-0.6-3.1,0.4-4.6c5.5-8.3,10.9-16.7,16.4-25.1
				c2-3,5.3-3,7.2,0c5.5,8.4,11,16.8,16.4,25.1c1.3,2,1.1,4.2-0.5,5.7c-0.9,0.8-1.9,1-3,1C447.1,77.7,441.5,77.7,436,77.7z
				 M436,75.1c5.4,0,10.9,0,16.3,0c0.7,0,1.4,0,1.8-0.8c0.4-0.7,0.1-1.4-0.3-2c-5.5-8.3-10.9-16.7-16.4-25c-0.9-1.4-2-1.4-2.9,0
				c-5.5,8.4-10.9,16.7-16.4,25.1c-0.4,0.6-0.6,1.2-0.3,1.9c0.4,0.7,1.1,0.8,1.8,0.8C425.1,75.1,430.6,75.1,436,75.1z"/>
			<path d="M449.1,110.4c-2.2,0-3.9-1.7-3.9-3.9c0-2.2,1.7-4,3.9-3.9c2.1,0,3.9,1.8,3.9,3.9C453.1,108.6,451.3,110.4,449.1,110.4z
				 M450.4,106.5c0-0.7-0.6-1.3-1.3-1.3c-0.7,0-1.3,0.6-1.3,1.3c0,0.7,0.5,1.3,1.3,1.3C449.8,107.8,450.4,107.2,450.4,106.5z"/>
			<path d="M426.9,106.4c0,2.2-1.7,3.9-3.8,3.9c-2.2,0-4-1.7-4-3.9c0-2.2,1.8-4,3.9-4C425.1,102.5,426.9,104.3,426.9,106.4z
				 M424.2,106.4c0-0.7-0.6-1.3-1.4-1.3c-0.7,0-1.2,0.6-1.2,1.3c0,0.7,0.6,1.3,1.3,1.3C423.7,107.8,424.3,107.2,424.2,106.4z"/>
			<path d="M436,105.2c-1.7,0-3.3,0-5,0c-0.9,0-1.5-0.6-1.5-1.3c0-0.8,0.6-1.3,1.5-1.3c3.3,0,6.7,0,10,0c0.9,0,1.5,0.6,1.5,1.3
				c0,0.8-0.6,1.3-1.5,1.3C439.4,105.2,437.7,105.2,436,105.2z"/>
			<path d="M436,110.4c-1.7,0-3.3,0-5,0c-1,0-1.6-0.5-1.6-1.3s0.6-1.3,1.6-1.3c3.3,0,6.6,0,10,0c1,0,1.6,0.5,1.6,1.3
				s-0.6,1.3-1.6,1.3C439.4,110.4,437.7,110.4,436,110.4z"/>
			<path d="M462.2,101.3c0-2.2,1.7-3.9,3.9-3.9c2.2,0,4,1.7,4,3.9c0,2.2-1.8,3.9-3.9,3.9C464,105.1,462.2,103.4,462.2,101.3z
				 M467.5,101.2c0-0.7-0.6-1.3-1.4-1.3c-0.7,0-1.3,0.6-1.2,1.4c0,0.7,0.6,1.2,1.3,1.2C466.9,102.5,467.5,101.9,467.5,101.2z"/>
			<path d="M409.9,101.2c0,2.2-1.7,3.9-3.8,4c-2.2,0-4-1.7-4-3.9c0-2.2,1.8-3.9,3.9-3.9C408.1,97.3,409.8,99,409.9,101.2z
				 M405.9,99.9c-0.7,0-1.3,0.7-1.3,1.3c0,0.7,0.6,1.2,1.3,1.2c0.7,0,1.3-0.6,1.3-1.3C407.2,100.5,406.6,99.9,405.9,99.9z"/>
			<path d="M434.7,59.3c0-1.5,0-3,0-4.5c0-0.2,0-0.4,0-0.6c0.1-0.8,0.5-1.3,1.3-1.3c0.7,0,1.3,0.5,1.3,1.3c0,3.5,0,6.9,0,10.4
				c0,0.8-0.6,1.3-1.3,1.3c-0.8,0-1.3-0.5-1.3-1.4C434.7,62.8,434.7,61,434.7,59.3L434.7,59.3z"/>
			<path d="M436,68.5c0.7,0,1.3,0.6,1.3,1.3c0,0.7-0.5,1.3-1.2,1.3s-1.3-0.5-1.4-1.2C434.7,69.1,435.3,68.5,436,68.5z"/>
		</g>
	</g>
	<g id="icon_x5F_c">
		<g id="acc_00000037667403799779356720000013115237133231790742_">
			<path d="M238.5,313c-0.8,3-1.6,6-2.4,8.9c-0.4,1.4-0.8,2.9-1.2,4.3c-0.2,0.9-0.6,1.1-1.5,0.9c-1.5-0.4-2.9-0.8-4.4-1.2
				c-0.8-0.2-1-0.6-0.9-1.4c0.2-0.9,0.5-1.9,0.8-2.9c-1.4-0.4-2.7-0.7-4.1-1.1c-6.5-1.7-13-3.5-19.5-5.2c-0.5-0.1-0.7-0.4-0.7-0.9
				c0-1.2-0.1-2.3-0.1-3.6c1.2-0.3,2.3-0.9,2.7-2.3c0.2-0.8,0.2-1.6-0.3-2.4c-1-1.8-2.7-2.1-5-0.9c-0.7-1.5-1.4-3-2.1-4.4
				c-0.1-0.2,0.1-0.5,0.2-0.6c3.2-3.7,6.4-7.5,9.6-11.2c1.4-1.6,3.3-2.1,5.4-1.6c5.5,1.4,11,2.8,16.5,4.2c2.3,0.6,3.6,2.1,4.1,4.5
				c0.9,4.9,1.8,9.8,2.7,14.6c0,0.1,0.1,0.1,0.1,0.2C238.5,311.7,238.5,312.3,238.5,313z M233.9,308.9c-0.2-1.2-0.4-2.2-0.6-3.2
				c-0.5-2.5-1-5.1-1.5-7.6c-0.2-1-0.9-1.7-1.8-2c-0.4-0.1-0.8-0.3-1.2-0.4c-4.3-1.2-8.6-2.3-12.8-3.5c-1.9-0.5-3.3-0.1-4.6,1.4
				c-1.8,2.2-3.7,4.3-5.5,6.4c-0.3,0.4-0.6,0.7-1,1.1C214.6,303.7,224.2,306.2,233.9,308.9z M234.4,315.1c0-1.8-1.4-3.2-3.1-3.2
				c-1.9,0-3.1,1.3-3.2,3.2c0,1.7,1.4,3.2,3.1,3.2C232.9,318.3,234.4,316.8,234.4,315.1z"/>
			<path d="M196.1,323.5c-9.1,0-18.1,0-27.3,0c0,0.9,0,1.9,0,2.8c0,1.1-0.3,1.4-1.4,1.4c-1.4,0-2.9,0-4.3,0c-1,0-1.3-0.3-1.3-1.3
				c0-4.3,0-8.6,0-12.9c0-1.3,0.3-2.5,0.9-3.6c2.1-4.3,4.1-8.7,6.2-13c1-2,2.6-3,4.8-3c5.8,0,11.6,0,17.4,0c2.3,0,4,1.1,5,3.1
				c2.1,4.3,4.1,8.6,6.2,12.9c0.6,1.3,0.9,2.6,0.9,4c0,4.1,0,8.3,0,12.4c0,1.1-0.3,1.4-1.4,1.4c-1.4,0-2.9,0-4.3,0
				c-1,0-1.3-0.3-1.3-1.3C196.1,325.4,196.1,324.4,196.1,323.5z M197.3,309.4c-1-2.1-1.9-4.1-2.9-6.1c-0.6-1.3-1.3-2.6-1.9-3.9
				c-0.4-0.8-1.1-1.2-2.1-1.3c-0.6,0-1.3-0.1-1.9-0.1c-4.3,0-8.5,0-12.8,0c-1.9,0-3.1,0.7-3.9,2.5c-1.3,2.8-2.6,5.5-4,8.3
				c-0.1,0.2-0.1,0.4-0.2,0.7C177.5,309.4,187.4,309.4,197.3,309.4z M165.2,316.1c0,1.8,1.4,3.2,3.1,3.3c1.7,0,3.3-1.5,3.3-3.2
				s-1.5-3.1-3.2-3.2C166.6,313,165.2,314.4,165.2,316.1z M193.4,316.1c0,1.8,1.4,3.2,3.1,3.3c1.8,0,3.2-1.5,3.2-3.2
				s-1.4-3.1-3.2-3.1C194.7,313,193.4,314.4,193.4,316.1z"/>
			<path d="M199.9,294.3c-0.3-2.4-0.6-4.8-0.9-7.2c-0.2-1.9-0.5-3.7-0.7-5.6s-0.1-2.1,1.8-2.1c0.1,0,0.2,0,0.4,0
				c1.1,0,1.5,0.4,1.4,1.5c-0.2,1.6-0.4,3.2-0.6,4.8c-0.4,2.7-0.7,5.4-1,8.2c0,0.2-0.1,0.3-0.1,0.5
				C199.9,294.3,199.9,294.3,199.9,294.3z"/>
			<path d="M197.4,294.6c-1.8-2.4-3.6-4.8-5.4-7.1c-0.1-0.2-0.3-0.3-0.4-0.5c-0.2-0.4-0.6-1.1-0.4-1.3c0.4-0.5,1-0.8,1.6-1
				s0.8,0.5,1,0.9c1.1,2.7,2.2,5.3,3.3,8c0.1,0.3,0.3,0.7,0.4,1C197.5,294.6,197.5,294.6,197.4,294.6z"/>
			<path d="M202.5,293.5c0.1-0.2,0.1-0.4,0.2-0.6c1.2-2.8,2.3-5.6,3.5-8.3c0.4-0.9,0.6-1,1.4-0.5c1.6,0.8,1.6,0.9,0.5,2.4
				c-1.7,2.2-3.4,4.4-5.1,6.7c-0.1,0.2-0.3,0.4-0.4,0.5C202.6,293.6,202.5,293.6,202.5,293.5z"/>
		</g>
		<g id="rain_00000018947785660711938610000016361835389135305856_">
			<path d="M196.2,330.4c-0.1-0.1-0.2-0.1-0.3-0.2c-1.1-0.5-1.5-1.6-1-2.7c1.3-2.7,2.7-5.4,4.1-8.1c0.5-1,1.7-1.4,2.7-0.9
				s1.4,1.6,0.9,2.6c-1.3,2.7-2.7,5.5-4.1,8.2c-0.2,0.5-0.8,0.7-1.2,1.1C196.9,330.4,196.5,330.4,196.2,330.4z"/>
			<path d="M214.4,330.4c-1.6-0.8-1.9-1.8-1.1-3.4c1.2-2.5,2.5-5,3.8-7.5c0.5-1,1.4-1.4,2.3-1.2c1.2,0.3,2,1.6,1.4,2.7
				c-1.4,2.8-2.8,5.6-4.2,8.3c-0.2,0.4-0.8,0.7-1.2,1C215.1,330.4,214.7,330.4,214.4,330.4z"/>
			<path d="M178,330.4c-0.1-0.1-0.2-0.2-0.4-0.2c-1-0.5-1.4-1.6-0.9-2.6c1.3-2.7,2.7-5.5,4.1-8.2c0.5-1,1.7-1.3,2.6-0.9
				c1,0.5,1.4,1.6,0.9,2.6c-1.4,2.8-2.7,5.5-4.1,8.2c-0.2,0.5-0.8,0.7-1.3,1.1C178.6,330.4,178.3,330.4,178,330.4z"/>
			<path d="M209.4,274.3c2.5-0.7,5-0.7,7.4,0.2c4.7,1.7,7.8,5.9,8.1,11c0,0.5,0.1,0.6,0.6,0.8c5.1,1.2,8.7,6,8.5,11.1
				c-0.2,5.4-4.1,9.8-9.4,10.6c-0.7,0.1-1.3,0.1-2,0.1c-12.9,0-25.9,0-38.8,0c-7,0-12.7-4.6-14.1-11.4c-1.5-7.2,2.9-14.4,10.1-16.3
				c0.6-0.2,0.8-0.4,0.9-1c0.4-6.6,5.8-12.4,12.3-13.5c6.8-1.1,13,1.9,16.3,8.1C209.3,274,209.3,274.1,209.4,274.3z M203.1,304.1
				c2.3,0,4.7,0,7,0c4.4,0,8.8,0,13.2,0c2.9,0,5.4-2,6.3-4.8c0.9-2.8,0-5.9-2.3-7.7c-1.3-1-2.8-1.5-4.5-1.6c-1.6,0-2.3-1.1-2.1-2.6
				c0.1-1,0.2-2,0-3c-1.1-5.2-6.6-7.9-11.4-5.7c-1.4,0.7-2.6,0.2-3.1-1.3c-1.8-5.2-6.7-8.3-12.2-7.6c-5.6,0.7-9.9,6.1-9.5,11.7
				c0.1,1.5-0.6,2.3-2,2.5c-6,0.6-10.2,6.5-8.8,12.4c1.1,4.7,5.1,7.8,10,7.8C190.2,304.1,196.7,304.1,203.1,304.1z"/>
			<path d="M209,323.3c-1.7,0-2.6-1.5-2-2.9c0.5-1.1,1.1-2.3,1.7-3.4c0.8-1.5,1.5-3,2.3-4.6c0.6-1.2,1.7-1.6,2.8-1.1
				s1.4,1.7,0.8,2.9c-1.3,2.6-2.6,5.2-3.9,7.8C210.3,322.8,209.7,323.3,209,323.3z"/>
			<path d="M178.6,313.2c-0.1,0.4-0.2,0.7-0.4,1.1c-1.3,2.6-2.6,5.2-3.9,7.7c-0.6,1.2-1.7,1.6-2.8,1.1s-1.4-1.7-0.8-2.9
				c1.3-2.6,2.6-5.2,3.9-7.8c0.5-0.9,1.4-1.3,2.3-1.1C177.9,311.5,178.5,312.3,178.6,313.2z"/>
			<path d="M190.8,323.3c-1.7,0-2.6-1.5-2-2.9c0.7-1.5,1.4-2.9,2.2-4.4c0.6-1.2,1.2-2.4,1.8-3.5c0.6-1.2,1.8-1.6,2.8-1.1
				s1.4,1.7,0.8,2.9c-1.3,2.6-2.6,5.1-3.9,7.7C192.1,322.8,191.5,323.3,190.8,323.3z"/>
			<path d="M227.2,323.3c-1.6,0-2.6-1.5-2-2.9c0.6-1.3,1.3-2.6,1.9-3.8c0.7-1.4,1.4-2.8,2.1-4.1c0.6-1.2,1.7-1.6,2.8-1
				c1,0.5,1.4,1.7,0.8,2.9c-1.3,2.6-2.6,5.1-3.9,7.7C228.5,322.8,227.9,323.3,227.2,323.3z"/>
		</g>
		<g id="jam_00000116918256019267944840000013241853104374623930_">
			<path d="M184.9,333.9c-1.5-0.6-2.1-1.8-2-3.4c0.1-1,0-2,0-3c-0.5-0.2-1.1-0.4-1.5-0.6c-0.8-0.5-1.1-1.2-1.1-2.1
				c0-0.8,0-1.7,0-2.5c-1.3,0-2.6,0-3.9,0c0,0.2,0,0.5,0,0.7c0,1,0,2.1,0,3.1c0,1.5-1.1,2.6-2.6,2.6c-1.7,0-3.5,0-5.2,0
				c-1.6,0-2.6-1.1-2.6-2.7c0-1.2,0-2.5,0-3.5c-0.8-0.5-1.5-0.9-2.1-1.4c-0.6-0.6-0.5-1.5-0.5-2.3c0-2.7,0-5.4,0-8.1
				c0-3.3,1.9-5.7,5.1-6.6c0.3-0.1,0.6-0.4,0.7-0.7c0.9-2.7,1.8-5.4,2.7-8c0.8-2.3,2-3.2,4.4-3.2c6.3,0,12.6,0,18.9,0
				c2.1,0,3.4,0.9,4.1,3c0.2,0.5,0.4,1,0.5,1.5c0.1,0.6,0.4,0.8,1,0.8c1.4,0,2.8,0,4.1,0c0.1,0,0.1,0,0.2,0c0.3-0.8,0.5-1.6,0.8-2.4
				c0.6-1.8,2-2.8,3.9-2.8c6.5,0,13,0,19.5,0c2,0,3.3,1,4,2.9c0.9,2.8,1.9,5.5,2.8,8.3c0.1,0.5,0.4,0.7,0.9,0.9
				c2.5,0.7,4,2.3,4.7,4.7c0.1,0.2,0.1,0.4,0.2,0.6c0,3.6,0,7.2,0,10.7c-0.5,1.2-1.3,2-2.6,2c0,1.3,0,2.5,0,3.8
				c0,1.6-1.1,2.7-2.7,2.7c-1.7,0-3.4,0-5.1,0c-1.6,0-2.7-1.1-2.7-2.7c0-1,0-2,0-3c0-0.3,0-0.5,0-0.8c-1.3,0-2.6,0-3.9,0
				c0,0.8,0.1,1.6,0,2.4c-0.1,0.6-0.2,1.4-0.6,1.8c-0.5,0.5-1.2,0.8-2,1.3c0,0.8-0.1,1.9,0,2.9c0.1,1.6-0.5,2.8-2,3.4
				c-2.1,0-4.3,0-6.4,0c-1.5-0.6-2.1-1.7-2-3.3c0.1-1.1,0-2.1,0-3.2c-6.1,0-12.2,0-18.4,0c0,1.1-0.1,2.2,0,3.2
				c0.1,1.6-0.5,2.7-2,3.3C189.1,333.9,187,333.9,184.9,333.9z M222.1,324.7c0-0.2,0-0.4,0-0.5c0-2.8,0-5.6,0-8.4c0-2.4-1.7-4-4.1-4
				c-10.4,0-20.7,0-31.1,0c-2.4,0-4.1,1.7-4.1,4.1c0,1.8,0,3.5,0,5.3c0,1.2,0,2.4,0,3.6C196,324.7,209,324.7,222.1,324.7z
				 M188.6,309c9.3,0,18.4,0,27.6,0c0-0.1,0-0.2,0-0.3c-0.9-2.6-1.7-5.2-2.6-7.8c-0.2-0.8-0.8-1-1.6-1c-6.4,0-12.8,0-19.2,0
				c-1,0-1.3,0.3-1.7,1.2c-0.7,2-1.4,4.1-2,6.1C189,307.8,188.8,308.4,188.6,309z M233.4,303.8c-1-2.9-1.9-5.6-2.8-8.3
				c-0.2-0.6-0.8-0.8-1.4-0.8c-1.9,0-3.9,0-5.8,0c-4.5,0-8.9,0-13.4,0c-0.6,0-1.2,0.1-1.5,0.7c-0.2,0.6-0.4,1.2-0.7,1.9
				c1.6,0,3,0,4.5,0c1.9,0,3.3,1,3.9,2.8c0.4,1,0.7,2,1,3c0.2,0.6,0.4,0.7,1,0.7c4.8,0,9.6,0,14.3,0
				C232.8,303.8,233,303.8,233.4,303.8z M197.2,297.3c-0.2-0.5-0.3-1-0.5-1.5c-0.3-0.9-0.6-1.2-1.6-1.2c-6.4,0-12.8,0-19.1,0
				c-1,0-1.3,0.3-1.6,1.2c-0.7,2.2-1.4,4.4-2.2,6.5c-0.1,0.5-0.3,0.9-0.5,1.4c5.4,0,10.6,0,16,0c0.4-1.1,0.8-2.2,1.1-3.4
				c0.7-2.2,2-3.1,4.3-3.1C194.4,297.3,195.7,297.3,197.2,297.3z M239.1,319.5c0-3,0-5.8,0-8.7c0-2.7-1.6-4.3-4.3-4.3
				c-5.2,0-10.5,0-15.7,0c-0.2,0-0.5,0-0.8,0c0.2,0.8,0.5,1.4,0.6,2c0.1,0.5,0.4,0.6,0.8,0.6c1.6,0,3.3,0,4.9,0
				c0.8,0,1.4,0.5,1.4,1.2c0,0.8-0.5,1.3-1.4,1.4c-0.4,0-0.8,0-1.1,0c0.4,0.8,0.6,1.6,1,2.4c0.1,0.1,0.3,0.2,0.5,0.3
				c0.8,0.3,1.2,1.1,0.8,1.8c-0.2,0.4-0.7,0.6-1.1,1c0,0.7,0,1.5,0,2.3C229.6,319.5,234.3,319.5,239.1,319.5z M181.4,311.7
				c-0.3,0-0.6,0-0.8,0c-1,0-1.6-0.5-1.6-1.3s0.6-1.3,1.6-1.3c1.6,0,3.1,0,4.7,0c0.2,0,0.6-0.2,0.7-0.4c0.3-0.7,0.5-1.4,0.8-2.2
				c-0.3,0-0.5,0-0.8,0c-5.3,0-10.6,0-15.9,0c-2.5,0-4.1,1.6-4.2,4.2c0,2.7,0,5.4,0,8.1c0,0.2,0,0.5,0,0.7c4.9,0,9.6,0,14.4,0
				c0-0.9,0-1.7,0-2.5c-0.7-0.2-1.3-0.6-1.3-1.4c0-0.7,0.5-1.1,1.2-1.3c0.1,0,0.3-0.2,0.3-0.3C180.8,313.2,181.1,312.5,181.4,311.7z
				 M173.7,322.2c-1.8,0-3.5,0-5.2,0c0,1.3,0,2.5,0,3.8c1.7,0,3.4,0,5.2,0C173.7,324.7,173.7,323.5,173.7,322.2z M236.5,326
				c0-1.4,0-2.6,0-3.9c-1.7,0-3.4,0-5.1,0c0,1.3,0,2.6,0,3.9C233.1,326,234.8,326,236.5,326z M190.7,331.3c0-1.3,0-2.6,0-3.9
				c-1.7,0-3.4,0-5.1,0c0,1.3,0,2.6,0,3.9C187.3,331.3,188.9,331.3,190.7,331.3z M219.5,331.3c0-1.3,0-2.6,0-3.9c-1.7,0-3.4,0-5.1,0
				c0,1.3,0,2.6,0,3.9C216.1,331.3,217.8,331.3,219.5,331.3z"/>
			<path d="M202.4,289.4c-5.4,0-10.9,0-16.3,0c-1.8,0-3.2-0.6-4-2.1c-0.9-1.6-0.6-3.1,0.4-4.6c5.5-8.4,10.9-16.7,16.4-25.1
				c1.9-3,5.3-3,7.2,0c5.5,8.4,11,16.8,16.4,25.1c1.3,2,1.1,4.2-0.5,5.7c-0.9,0.8-1.9,1-3,1C213.5,289.4,208,289.4,202.4,289.4z
				 M202.5,286.8c5.4,0,10.9,0,16.3,0c0.7,0,1.4,0,1.8-0.8c0.4-0.7,0.1-1.4-0.3-2c-5.5-8.3-10.9-16.7-16.4-25c-0.9-1.4-2-1.4-2.9,0
				c-5.5,8.4-10.9,16.7-16.4,25.1c-0.4,0.6-0.6,1.2-0.3,1.9c0.4,0.7,1.1,0.8,1.8,0.8C191.6,286.8,197,286.8,202.5,286.8z"/>
			<path d="M215.6,322.1c-2.2,0-3.9-1.7-3.9-3.9c0-2.2,1.7-4,3.9-4c2.1,0,3.9,1.8,3.9,3.9C219.5,320.4,217.8,322.1,215.6,322.1z
				 M216.9,318.2c0-0.7-0.6-1.3-1.3-1.3s-1.3,0.6-1.3,1.3c0,0.7,0.5,1.3,1.3,1.3C216.3,319.5,216.9,318.9,216.9,318.2z"/>
			<path d="M193.3,318.2c0,2.2-1.7,3.9-3.8,3.9c-2.2,0-4-1.7-4-3.9c0-2.2,1.8-4,3.9-4C191.6,314.3,193.3,316,193.3,318.2z
				 M190.7,318.2c0-0.7-0.6-1.3-1.4-1.3c-0.7,0-1.2,0.6-1.2,1.3c0,0.7,0.6,1.3,1.3,1.3C190.2,319.5,190.7,318.9,190.7,318.2z"/>
			<path d="M202.5,316.9c-1.7,0-3.3,0-5,0c-0.9,0-1.6-0.5-1.5-1.3c0-0.8,0.6-1.3,1.5-1.3c3.3,0,6.7,0,10,0c0.9,0,1.6,0.5,1.5,1.3
				c0,0.8-0.6,1.3-1.5,1.3C205.8,316.9,204.1,316.9,202.5,316.9z"/>
			<path d="M202.5,322.1c-1.7,0-3.3,0-5,0c-1,0-1.6-0.5-1.6-1.3s0.6-1.3,1.6-1.3c3.3,0,6.6,0,10,0c1,0,1.6,0.5,1.6,1.3
				s-0.6,1.3-1.6,1.3C205.8,322.1,204.2,322.1,202.5,322.1z"/>
			<path d="M228.7,313c0-2.2,1.7-3.9,3.9-3.9s4,1.7,4,3.9c0,2.2-1.8,4-3.9,3.9C230.4,316.9,228.7,315.2,228.7,313z M233.9,312.9
				c0-0.7-0.6-1.3-1.4-1.3c-0.7,0-1.3,0.6-1.2,1.4c0,0.7,0.6,1.2,1.3,1.2C233.3,314.3,233.9,313.6,233.9,312.9z"/>
			<path d="M176.3,312.9c0,2.2-1.7,3.9-3.8,4c-2.2,0-4-1.7-4-3.9c0-2.2,1.8-4,3.9-4C174.6,309,176.3,310.8,176.3,312.9z
				 M172.4,311.7c-0.7,0-1.3,0.6-1.3,1.4c0,0.7,0.6,1.2,1.3,1.2s1.3-0.6,1.3-1.3C173.7,312.2,173.1,311.6,172.4,311.7z"/>
			<path d="M201.2,271c0-1.5,0-3,0-4.5c0-0.2,0-0.4,0-0.6c0.1-0.8,0.6-1.3,1.3-1.3s1.3,0.5,1.3,1.3c0,3.5,0,6.9,0,10.4
				c0,0.8-0.6,1.3-1.3,1.3c-0.8,0-1.3-0.5-1.3-1.4C201.2,274.5,201.2,272.8,201.2,271L201.2,271z"/>
			<path d="M202.5,280.2c0.7,0,1.3,0.6,1.3,1.3c0,0.7-0.5,1.3-1.2,1.3s-1.3-0.5-1.4-1.2C201.2,280.9,201.8,280.3,202.5,280.2z"/>
		</g>
	</g>
	<g id="icon_x5F_g">
		<g id="acc_00000098936445527044443990000005621925344267456927_">
			<path d="M654.4,337.1c-0.8,3-1.6,6-2.4,8.9c-0.4,1.4-0.8,2.9-1.2,4.3c-0.2,0.9-0.7,1.1-1.5,0.9c-1.5-0.4-2.9-0.8-4.4-1.2
				c-0.8-0.2-1-0.6-0.8-1.4c0.2-0.9,0.5-1.9,0.8-2.9c-1.4-0.4-2.7-0.7-4.1-1.1c-6.5-1.7-13-3.5-19.5-5.2c-0.5-0.1-0.7-0.4-0.7-0.9
				c0-1.2-0.1-2.3-0.1-3.6c1.2-0.3,2.3-0.9,2.7-2.3c0.2-0.8,0.2-1.6-0.3-2.4c-1-1.8-2.7-2.1-5-0.9c-0.7-1.5-1.4-3-2.1-4.4
				c-0.1-0.2,0-0.5,0.2-0.6c3.2-3.7,6.4-7.5,9.6-11.2c1.4-1.6,3.3-2.1,5.4-1.6c5.5,1.4,11,2.8,16.5,4.2c2.3,0.6,3.6,2.1,4.1,4.5
				c0.9,4.9,1.8,9.8,2.7,14.6c0,0.1,0.1,0.1,0.1,0.2C654.4,335.8,654.4,336.4,654.4,337.1z M649.9,333c-0.2-1.2-0.4-2.2-0.6-3.2
				c-0.5-2.5-1-5.1-1.5-7.6c-0.2-1-0.9-1.7-1.8-2c-0.4-0.1-0.8-0.3-1.2-0.4c-4.3-1.2-8.6-2.3-12.8-3.5c-1.9-0.5-3.3-0.1-4.6,1.4
				c-1.8,2.2-3.7,4.3-5.5,6.4c-0.3,0.4-0.6,0.7-1,1.1C630.6,327.8,640.2,330.4,649.9,333z M650.3,339.2c0-1.8-1.4-3.2-3.2-3.2
				c-1.9,0-3.2,1.3-3.2,3.2c0,1.7,1.4,3.2,3.1,3.2C648.8,342.4,650.3,340.9,650.3,339.2z"/>
			<path d="M612,347.5c-9.1,0-18.1,0-27.3,0c0,0.9,0,1.9,0,2.8c0,1.1-0.3,1.4-1.4,1.4c-1.5,0-2.9,0-4.3,0c-1,0-1.3-0.3-1.3-1.3
				c0-4.3,0-8.6,0-12.9c0-1.3,0.3-2.5,0.9-3.6c2.1-4.3,4.1-8.7,6.2-13c1-2,2.6-3,4.8-3c5.8,0,11.6,0,17.4,0c2.3,0,4,1.1,5,3.1
				c2.1,4.3,4.1,8.6,6.2,12.9c0.6,1.3,0.9,2.6,0.9,4c0,4.1,0,8.3,0,12.4c0,1.1-0.3,1.4-1.4,1.4c-1.5,0-2.9,0-4.3,0
				c-1,0-1.3-0.3-1.3-1.3C612,349.5,612,348.5,612,347.5z M613.2,333.5c-1-2.1-1.9-4.1-2.9-6.1c-0.6-1.3-1.3-2.6-1.9-3.9
				c-0.4-0.8-1.2-1.2-2.1-1.3c-0.7,0-1.3-0.1-1.9-0.1c-4.3,0-8.5,0-12.8,0c-1.9,0-3.1,0.7-3.9,2.5c-1.3,2.8-2.6,5.5-4,8.3
				c-0.1,0.2-0.2,0.4-0.2,0.7C593.4,333.5,603.3,333.5,613.2,333.5z M581.1,340.2c0,1.8,1.4,3.2,3.1,3.3c1.7,0,3.3-1.5,3.3-3.2
				s-1.5-3.1-3.2-3.2C582.5,337.1,581.1,338.5,581.1,340.2z M609.3,340.2c0,1.8,1.4,3.2,3.1,3.3c1.8,0,3.2-1.5,3.2-3.2
				s-1.4-3.1-3.2-3.1C610.7,337.1,609.3,338.5,609.3,340.2z"/>
			<path d="M615.8,318.4c-0.3-2.4-0.6-4.8-0.9-7.2c-0.2-1.9-0.5-3.7-0.7-5.6s0-2.1,1.8-2.1c0.1,0,0.2,0,0.4,0c1.1,0,1.5,0.4,1.3,1.5
				c-0.2,1.6-0.4,3.2-0.6,4.8c-0.3,2.7-0.7,5.4-1,8.2C616,318.1,615.9,318.3,615.8,318.4L615.8,318.4z"/>
			<path d="M613.4,318.7c-1.8-2.4-3.6-4.8-5.4-7.1c-0.1-0.2-0.3-0.3-0.4-0.5c-0.2-0.4-0.6-1.1-0.4-1.3c0.4-0.5,1-0.8,1.6-1
				s0.8,0.5,1,0.9c1.1,2.7,2.2,5.3,3.3,8C613.2,318,613.4,318.4,613.4,318.7C613.4,318.7,613.4,318.7,613.4,318.7z"/>
			<path d="M618.4,317.6c0.1-0.2,0.1-0.4,0.2-0.6c1.2-2.8,2.3-5.6,3.5-8.3c0.4-0.9,0.5-1,1.4-0.5c1.6,0.8,1.7,0.9,0.5,2.4
				c-1.7,2.2-3.4,4.4-5.1,6.7c-0.1,0.2-0.3,0.4-0.4,0.5C618.5,317.7,618.4,317.7,618.4,317.6z"/>
		</g>
		<g id="rain_00000069360529285795218070000017366064535284436142_">
			<path d="M613.5,354.5c-0.1-0.1-0.2-0.1-0.3-0.2c-1.1-0.5-1.5-1.6-1-2.7c1.3-2.7,2.7-5.4,4.1-8.1c0.5-1,1.7-1.4,2.7-0.9
				s1.4,1.6,0.9,2.6c-1.3,2.7-2.7,5.5-4.1,8.2c-0.2,0.5-0.8,0.7-1.2,1.1C614.2,354.5,613.9,354.5,613.5,354.5z"/>
			<path d="M631.8,354.5c-1.6-0.8-1.9-1.8-1.1-3.4c1.2-2.5,2.5-5,3.8-7.5c0.5-1,1.4-1.4,2.3-1.2c1.2,0.3,2,1.6,1.4,2.7
				c-1.3,2.8-2.8,5.6-4.2,8.3c-0.2,0.4-0.8,0.7-1.2,1C632.4,354.5,632.1,354.5,631.8,354.5z"/>
			<path d="M595.3,354.5c-0.1-0.1-0.2-0.2-0.4-0.2c-1-0.5-1.4-1.6-0.9-2.6c1.3-2.7,2.7-5.5,4.1-8.2c0.5-1,1.7-1.3,2.7-0.9
				c1,0.5,1.4,1.6,1,2.6c-1.3,2.8-2.7,5.5-4.1,8.2c-0.2,0.5-0.8,0.7-1.3,1.1C596,354.5,595.7,354.5,595.3,354.5z"/>
			<path d="M626.8,298.4c2.5-0.7,5-0.7,7.4,0.2c4.7,1.7,7.8,5.9,8.1,11c0,0.5,0.1,0.6,0.6,0.8c5.1,1.2,8.7,6,8.5,11.1
				c-0.2,5.4-4.1,9.8-9.4,10.6c-0.7,0.1-1.3,0.1-2,0.1c-12.9,0-25.9,0-38.8,0c-7,0-12.7-4.6-14.1-11.4c-1.5-7.2,3-14.4,10-16.3
				c0.6-0.2,0.8-0.4,0.9-1c0.4-6.6,5.8-12.4,12.3-13.5c6.8-1.1,13,1.9,16.3,8.1C626.6,298.1,626.7,298.2,626.8,298.4z M620.5,328.2
				c2.3,0,4.7,0,7,0c4.4,0,8.8,0,13.2,0c2.9,0,5.4-2,6.3-4.8c0.9-2.8,0-5.9-2.3-7.7c-1.3-1-2.8-1.5-4.5-1.6c-1.6,0-2.3-1.1-2.1-2.6
				c0.1-1,0.2-2,0-3c-1-5.2-6.5-7.9-11.4-5.7c-1.5,0.7-2.6,0.2-3.1-1.3c-1.8-5.2-6.7-8.3-12.2-7.6c-5.6,0.7-10,6.1-9.5,11.7
				c0.1,1.5-0.6,2.3-2,2.5c-6,0.6-10.2,6.5-8.8,12.4c1.1,4.7,5.1,7.8,10,7.8C607.6,328.2,614,328.2,620.5,328.2z"/>
			<path d="M626.4,347.4c-1.7,0-2.6-1.5-2-2.9c0.5-1.1,1.1-2.3,1.7-3.4c0.8-1.5,1.5-3,2.3-4.6c0.6-1.2,1.7-1.6,2.8-1.1
				c1,0.5,1.4,1.7,0.8,2.9c-1.3,2.6-2.6,5.2-3.9,7.8C627.7,346.9,627.1,347.4,626.4,347.4z"/>
			<path d="M595.9,337.3c-0.1,0.4-0.2,0.7-0.3,1.1c-1.3,2.6-2.6,5.2-3.9,7.7c-0.6,1.2-1.7,1.6-2.8,1.1s-1.4-1.7-0.8-2.9
				c1.3-2.6,2.6-5.2,3.9-7.8c0.5-0.9,1.4-1.3,2.3-1.1S595.8,336.4,595.9,337.3z"/>
			<path d="M608.2,347.4c-1.7,0-2.7-1.5-2-2.9c0.7-1.5,1.4-2.9,2.2-4.4c0.6-1.2,1.2-2.4,1.8-3.5c0.6-1.2,1.8-1.6,2.8-1.1
				s1.4,1.7,0.8,2.9c-1.3,2.6-2.6,5.1-3.9,7.7C609.5,346.9,608.9,347.4,608.2,347.4z"/>
			<path d="M644.5,347.4c-1.7,0-2.6-1.5-2-2.9c0.6-1.3,1.3-2.6,1.9-3.8c0.7-1.4,1.4-2.8,2.1-4.1c0.6-1.2,1.7-1.6,2.8-1
				c1,0.5,1.4,1.7,0.8,2.9c-1.3,2.6-2.6,5.1-3.9,7.7C645.8,346.9,645.2,347.4,644.5,347.4z"/>
		</g>
		<g id="jam_00000135657111687868331450000007933110769712687539_">
			<path d="M598.2,354.9c-1.5-0.6-2.1-1.8-2-3.4c0.1-1,0-2,0-3c-0.5-0.2-1.1-0.4-1.5-0.6c-0.8-0.5-1.1-1.2-1.1-2.1
				c0-0.8,0-1.7,0-2.5c-1.3,0-2.6,0-3.9,0c0,0.2,0,0.5,0,0.7c0,1,0,2.1,0,3.1c0,1.5-1.1,2.6-2.6,2.6c-1.7,0-3.5,0-5.2,0
				c-1.5,0-2.6-1.1-2.6-2.7c0-1.2,0-2.5,0-3.5c-0.8-0.5-1.5-0.9-2.1-1.4c-0.6-0.6-0.5-1.5-0.5-2.3c0-2.7,0-5.4,0-8.1
				c0-3.3,1.9-5.7,5.1-6.6c0.3-0.1,0.6-0.4,0.7-0.7c0.9-2.7,1.8-5.4,2.7-8c0.8-2.3,2-3.2,4.4-3.2c6.3,0,12.6,0,18.9,0
				c2.1,0,3.4,0.9,4.1,3c0.2,0.5,0.4,1,0.5,1.5c0.1,0.6,0.4,0.8,1,0.8c1.4,0,2.8,0,4.1,0c0,0,0.1,0,0.2,0c0.3-0.8,0.5-1.6,0.8-2.4
				c0.6-1.8,2-2.8,3.9-2.8c6.5,0,13,0,19.5,0c2,0,3.3,1,4,2.9c0.9,2.8,1.8,5.5,2.8,8.3c0.2,0.5,0.3,0.7,0.9,0.9
				c2.5,0.7,4,2.3,4.7,4.7c0,0.2,0.1,0.4,0.2,0.6c0,3.6,0,7.2,0,10.7c-0.5,1.2-1.3,2-2.6,2c0,1.3,0,2.5,0,3.8c0,1.6-1.1,2.7-2.7,2.7
				c-1.7,0-3.4,0-5.1,0c-1.6,0-2.7-1.1-2.7-2.7c0-1,0-2,0-3c0-0.3,0-0.5,0-0.8c-1.3,0-2.6,0-3.9,0c0,0.8,0.1,1.6,0,2.4
				c-0.1,0.6-0.2,1.4-0.6,1.8c-0.5,0.5-1.2,0.8-2,1.3c0,0.8-0.1,1.9,0,2.9c0.1,1.6-0.5,2.8-2,3.4c-2.2,0-4.3,0-6.4,0
				c-1.5-0.6-2.2-1.7-2-3.3c0.1-1.1,0-2.1,0-3.2c-6.2,0-12.2,0-18.3,0c0,1.1-0.1,2.2,0,3.2c0.1,1.6-0.5,2.7-2,3.3
				C602.5,354.9,600.4,354.9,598.2,354.9z M635.5,345.6c0-0.2,0-0.4,0-0.5c0-2.8,0-5.6,0-8.4c0-2.4-1.7-4-4.1-4
				c-10.4,0-20.7,0-31.1,0c-2.4,0-4.1,1.7-4.1,4.1c0,1.8,0,3.5,0,5.3c0,1.2,0,2.4,0,3.6C609.3,345.6,622.4,345.6,635.5,345.6z
				 M602,330c9.3,0,18.4,0,27.7,0c0-0.1,0-0.2,0-0.3c-0.9-2.6-1.7-5.2-2.6-7.8c-0.2-0.8-0.8-1-1.6-1c-6.4,0-12.8,0-19.2,0
				c-1,0-1.3,0.3-1.7,1.2c-0.7,2-1.4,4.1-2,6.1C602.4,328.7,602.2,329.3,602,330z M646.8,324.8c-1-2.9-1.9-5.6-2.8-8.3
				c-0.2-0.6-0.8-0.8-1.4-0.8c-1.9,0-3.9,0-5.8,0c-4.5,0-8.9,0-13.4,0c-0.6,0-1.2,0.1-1.5,0.7c-0.2,0.6-0.4,1.2-0.7,1.9
				c1.5,0,3,0,4.5,0c1.9,0,3.3,1,3.9,2.8c0.3,1,0.7,2,1,3c0.2,0.6,0.4,0.7,1,0.7c4.8,0,9.6,0,14.3,0
				C646.1,324.8,646.4,324.8,646.8,324.8z M610.5,318.2c-0.2-0.5-0.3-1-0.5-1.5c-0.3-0.9-0.7-1.2-1.6-1.2c-6.4,0-12.8,0-19.2,0
				c-1,0-1.3,0.3-1.6,1.2c-0.7,2.2-1.5,4.4-2.2,6.5c-0.2,0.5-0.3,0.9-0.5,1.4c5.4,0,10.6,0,16,0c0.4-1.1,0.8-2.2,1.1-3.4
				c0.7-2.2,2-3.1,4.3-3.1C607.8,318.2,609.1,318.2,610.5,318.2z M652.5,340.4c0-3,0-5.8,0-8.7c0-2.7-1.6-4.3-4.3-4.3
				c-5.2,0-10.5,0-15.7,0c-0.2,0-0.5,0-0.8,0c0.2,0.8,0.5,1.4,0.7,2c0.1,0.5,0.4,0.6,0.8,0.6c1.6,0,3.3,0,4.9,0
				c0.8,0,1.3,0.5,1.4,1.2c0,0.8-0.5,1.3-1.3,1.4c-0.4,0-0.8,0-1.1,0c0.3,0.8,0.7,1.6,1,2.4c0.1,0.1,0.3,0.2,0.5,0.3
				c0.8,0.3,1.2,1.1,0.8,1.8c-0.2,0.4-0.7,0.6-1.1,1c0,0.7,0,1.5,0,2.3C642.9,340.4,647.7,340.4,652.5,340.4z M594.8,332.6
				c-0.3,0-0.6,0-0.8,0c-1,0-1.6-0.5-1.6-1.3s0.6-1.3,1.6-1.3c1.6,0,3.1,0,4.7,0c0.2,0,0.6-0.2,0.7-0.4c0.3-0.7,0.5-1.4,0.8-2.2
				c-0.3,0-0.5,0-0.8,0c-5.3,0-10.6,0-15.9,0c-2.5,0-4.2,1.6-4.2,4.2c0,2.7,0,5.4,0,8.1c0,0.2,0,0.5,0,0.7c4.9,0,9.6,0,14.4,0
				c0-0.9,0-1.7,0-2.5c-0.7-0.2-1.3-0.6-1.3-1.4c0-0.7,0.5-1.1,1.2-1.3c0.1,0,0.3-0.2,0.3-0.3C594.1,334.2,594.4,333.4,594.8,332.6z
				 M587,343.1c-1.8,0-3.5,0-5.2,0c0,1.3,0,2.5,0,3.8c1.7,0,3.4,0,5.2,0C587,345.7,587,344.4,587,343.1z M649.8,347
				c0-1.4,0-2.6,0-3.9c-1.7,0-3.4,0-5.1,0c0,1.3,0,2.6,0,3.9C646.4,347,648.1,347,649.8,347z M604,352.2c0-1.3,0-2.6,0-3.9
				c-1.7,0-3.4,0-5.1,0c0,1.3,0,2.6,0,3.9C600.6,352.2,602.3,352.2,604,352.2z M632.8,352.2c0-1.3,0-2.6,0-3.9c-1.7,0-3.4,0-5.1,0
				c0,1.3,0,2.6,0,3.9C629.4,352.2,631.1,352.2,632.8,352.2z"/>
			<path d="M615.8,310.4c-5.4,0-10.9,0-16.3,0c-1.8,0-3.2-0.6-4-2.1c-0.9-1.6-0.6-3.1,0.4-4.6c5.5-8.4,10.9-16.7,16.4-25.1
				c2-3,5.3-3,7.2,0c5.5,8.4,11,16.8,16.4,25.1c1.3,2,1.1,4.2-0.5,5.7c-0.8,0.8-1.8,1-3,1C626.9,310.4,621.3,310.4,615.8,310.4z
				 M615.8,307.8c5.4,0,10.9,0,16.3,0c0.7,0,1.4,0,1.8-0.8c0.4-0.7,0.1-1.4-0.3-2c-5.5-8.3-10.9-16.7-16.3-25c-0.9-1.4-2-1.4-2.9,0
				c-5.5,8.4-10.9,16.7-16.4,25.1c-0.4,0.6-0.7,1.2-0.3,1.9c0.4,0.7,1.1,0.8,1.8,0.8C605,307.8,610.4,307.8,615.8,307.8z"/>
			<path d="M628.9,343.1c-2.2,0-3.9-1.7-3.9-3.9c0-2.2,1.7-4,3.9-4c2.1,0,3.9,1.8,3.9,3.9C632.9,341.3,631.1,343.1,628.9,343.1z
				 M630.2,339.2c0-0.7-0.6-1.3-1.3-1.3s-1.3,0.6-1.3,1.3c0,0.7,0.5,1.3,1.3,1.3C629.6,340.5,630.2,339.9,630.2,339.2z"/>
			<path d="M606.7,339.1c0,2.2-1.7,3.9-3.8,3.9c-2.2,0-4-1.7-4-3.9c0-2.2,1.8-4,3.9-4C604.9,335.2,606.7,337,606.7,339.1z
				 M604.1,339.1c0-0.7-0.6-1.3-1.3-1.3s-1.2,0.6-1.2,1.3c0,0.7,0.6,1.3,1.3,1.3C603.5,340.4,604.1,339.9,604.1,339.1z"/>
			<path d="M615.8,337.8c-1.7,0-3.3,0-5,0c-0.9,0-1.5-0.5-1.5-1.3s0.6-1.3,1.5-1.3c3.3,0,6.7,0,10,0c0.9,0,1.5,0.5,1.5,1.3
				s-0.6,1.3-1.5,1.3C619.2,337.9,617.5,337.8,615.8,337.8z"/>
			<path d="M615.8,343.1c-1.7,0-3.3,0-5,0c-1,0-1.6-0.5-1.6-1.3s0.6-1.3,1.6-1.3c3.3,0,6.6,0,10,0c1,0,1.6,0.5,1.6,1.3
				s-0.6,1.3-1.6,1.3C619.2,343.1,617.5,343.1,615.8,343.1z"/>
			<path d="M642,333.9c0-2.2,1.7-3.9,3.8-3.9c2.2,0,4,1.7,4,3.9c0,2.2-1.8,4-3.9,3.9C643.8,337.8,642,336.1,642,333.9z M647.3,333.9
				c0-0.7-0.6-1.3-1.4-1.3c-0.7,0-1.3,0.6-1.2,1.4c0,0.7,0.6,1.2,1.3,1.2C646.7,335.2,647.3,334.6,647.3,333.9z"/>
			<path d="M589.7,333.9c0,2.2-1.7,3.9-3.8,4c-2.2,0-4-1.7-4-3.9c0-2.2,1.8-4,3.9-4C587.9,330,589.7,331.7,589.7,333.9z
				 M585.7,332.6c-0.7,0-1.3,0.6-1.3,1.4c0,0.7,0.6,1.2,1.3,1.2s1.3-0.6,1.3-1.3C587,333.2,586.5,332.6,585.7,332.6z"/>
			<path d="M614.5,292c0-1.5,0-3,0-4.5c0-0.2,0-0.4,0-0.6c0.1-0.8,0.5-1.3,1.3-1.3c0.7,0,1.3,0.5,1.3,1.3c0,3.5,0,6.9,0,10.4
				c0,0.8-0.6,1.3-1.3,1.3c-0.8,0-1.3-0.5-1.3-1.4C614.5,295.5,614.5,293.7,614.5,292L614.5,292z"/>
			<path d="M615.8,301.2c0.7,0,1.3,0.6,1.3,1.3c0,0.7-0.5,1.3-1.2,1.3s-1.3-0.5-1.3-1.2C614.5,301.8,615.1,301.2,615.8,301.2z"/>
		</g>
	</g>
	<g id="icon_x5F_e">
		<g id="acc_00000037673954918449467690000013288535592134887050_">
			<path d="M656,525.1c-0.8,3-1.6,6-2.4,8.9c-0.4,1.4-0.8,2.9-1.2,4.3c-0.2,0.9-0.7,1.2-1.5,0.9c-1.5-0.4-2.9-0.8-4.4-1.2
				c-0.8-0.2-1-0.6-0.8-1.4c0.2-0.9,0.5-1.9,0.8-2.9c-1.4-0.4-2.7-0.7-4.1-1.1c-6.5-1.7-13-3.5-19.5-5.2c-0.5-0.1-0.7-0.3-0.7-0.9
				c0-1.2-0.1-2.3-0.1-3.6c1.2-0.3,2.3-0.9,2.7-2.3c0.2-0.8,0.2-1.6-0.3-2.4c-1-1.8-2.7-2.1-5-0.9c-0.7-1.5-1.4-3-2.1-4.4
				c-0.1-0.2,0-0.5,0.2-0.7c3.2-3.7,6.4-7.5,9.6-11.2c1.4-1.6,3.3-2.1,5.4-1.6c5.5,1.4,11,2.8,16.5,4.2c2.3,0.6,3.6,2.1,4.1,4.5
				c0.9,4.9,1.8,9.7,2.7,14.6c0,0.1,0.1,0.1,0.1,0.2C656,523.8,656,524.5,656,525.1z M651.5,521c-0.2-1.2-0.4-2.2-0.6-3.2
				c-0.5-2.5-1-5.1-1.5-7.6c-0.2-1-0.9-1.7-1.8-2c-0.4-0.1-0.8-0.3-1.2-0.4c-4.3-1.2-8.6-2.3-12.8-3.5c-1.9-0.5-3.3-0.1-4.6,1.4
				c-1.8,2.2-3.7,4.3-5.5,6.4c-0.3,0.3-0.6,0.7-1,1.1C632.2,515.8,641.8,518.4,651.5,521z M652,527.3c0-1.8-1.4-3.2-3.2-3.2
				c-1.9,0-3.2,1.3-3.2,3.2c0,1.7,1.4,3.2,3.1,3.2C650.5,530.5,652,529,652,527.3z"/>
			<path d="M613.7,535.6c-9.1,0-18.1,0-27.3,0c0,0.9,0,1.8,0,2.8c0,1.1-0.3,1.4-1.4,1.4c-1.5,0-2.9,0-4.3,0c-1,0-1.3-0.3-1.3-1.3
				c0-4.3,0-8.6,0-12.9c0-1.3,0.3-2.5,0.9-3.6c2.1-4.3,4.1-8.7,6.2-13c1-2,2.6-3,4.8-3c5.8,0,11.6,0,17.4,0c2.3,0,4,1.1,5,3.1
				c2.1,4.3,4.1,8.6,6.2,12.9c0.6,1.3,0.9,2.6,0.9,4c0,4.1,0,8.3,0,12.4c0,1.1-0.3,1.4-1.4,1.4c-1.5,0-2.9,0-4.3,0
				c-1,0-1.3-0.3-1.3-1.3C613.6,537.5,613.7,536.6,613.7,535.6z M614.9,521.6c-1-2.1-1.9-4.1-2.9-6.1c-0.6-1.3-1.3-2.6-1.9-3.9
				c-0.4-0.8-1.2-1.2-2.1-1.3c-0.7,0-1.3-0.1-1.9-0.1c-4.3,0-8.5,0-12.8,0c-1.9,0-3.1,0.7-3.9,2.4c-1.3,2.8-2.6,5.5-4,8.3
				c-0.1,0.2-0.2,0.4-0.2,0.7C595,521.6,604.9,521.6,614.9,521.6z M582.8,528.3c0,1.8,1.4,3.2,3.1,3.3c1.7,0,3.3-1.5,3.3-3.2
				s-1.5-3.2-3.2-3.2C584.2,525.1,582.8,526.5,582.8,528.3z M610.9,528.3c0,1.8,1.4,3.2,3.1,3.3c1.8,0,3.2-1.5,3.2-3.2
				s-1.4-3.2-3.2-3.2C612.3,525.2,610.9,526.5,610.9,528.3z"/>
			<path d="M617.4,506.5c-0.3-2.4-0.6-4.8-0.9-7.2c-0.2-1.9-0.5-3.7-0.7-5.6s0-2.1,1.8-2.1c0.1,0,0.2,0,0.4,0c1.1,0,1.5,0.4,1.3,1.5
				c-0.2,1.6-0.4,3.2-0.6,4.8c-0.3,2.7-0.7,5.4-1,8.2C617.6,506.2,617.6,506.4,617.4,506.5C617.5,506.5,617.5,506.5,617.4,506.5z"/>
			<path d="M615,506.8c-1.8-2.4-3.6-4.8-5.4-7.1c-0.1-0.2-0.3-0.3-0.4-0.5c-0.2-0.4-0.6-1.1-0.4-1.3c0.4-0.5,1-0.8,1.6-1
				s0.8,0.5,1,0.9c1.1,2.7,2.2,5.3,3.3,8C614.8,506.1,615,506.5,615,506.8C615.1,506.8,615,506.8,615,506.8z"/>
			<path d="M620,505.7c0.1-0.2,0.1-0.4,0.2-0.6c1.2-2.8,2.3-5.6,3.5-8.3c0.4-0.9,0.5-1,1.4-0.5c1.6,0.8,1.7,0.9,0.5,2.4
				c-1.7,2.2-3.4,4.4-5.1,6.7c-0.1,0.2-0.3,0.4-0.4,0.5C620.1,505.8,620.1,505.7,620,505.7z"/>
		</g>
		<g id="rain_00000113328504125364339050000006505069571440252810_">
			<path d="M615.3,542.5c-0.1-0.1-0.2-0.1-0.3-0.2c-1.1-0.5-1.5-1.6-1-2.7c1.3-2.7,2.7-5.4,4.1-8.1c0.5-1,1.7-1.4,2.7-0.9
				s1.4,1.6,0.9,2.6c-1.3,2.7-2.7,5.5-4.1,8.2c-0.2,0.5-0.8,0.7-1.2,1.1C616,542.5,615.6,542.5,615.3,542.5z"/>
			<path d="M633.5,542.5c-1.6-0.8-1.9-1.8-1.1-3.4c1.2-2.5,2.5-5,3.8-7.5c0.5-1,1.4-1.4,2.3-1.2c1.2,0.3,2,1.6,1.4,2.7
				c-1.3,2.8-2.8,5.6-4.2,8.3c-0.2,0.4-0.8,0.7-1.2,1C634.2,542.5,633.9,542.5,633.5,542.5z"/>
			<path d="M597.1,542.5c-0.1-0.1-0.2-0.2-0.4-0.2c-1-0.5-1.4-1.6-0.9-2.6c1.3-2.7,2.7-5.5,4.1-8.2c0.5-1,1.7-1.3,2.7-0.9
				c1,0.5,1.4,1.6,1,2.6c-1.3,2.8-2.7,5.5-4.1,8.2c-0.2,0.5-0.8,0.7-1.3,1.1C597.8,542.5,597.4,542.5,597.1,542.5z"/>
			<path d="M628.5,486.5c2.5-0.7,5-0.7,7.4,0.2c4.7,1.7,7.8,5.9,8.1,11c0,0.5,0.1,0.6,0.6,0.8c5.1,1.2,8.7,6,8.5,11.1
				c-0.2,5.4-4.1,9.8-9.4,10.6c-0.7,0.1-1.3,0.1-2,0.1c-12.9,0-25.9,0-38.8,0c-7,0-12.7-4.6-14.1-11.4c-1.5-7.2,3-14.4,10-16.3
				c0.6-0.2,0.8-0.4,0.9-1c0.4-6.6,5.8-12.4,12.3-13.5c6.8-1.1,13,1.9,16.3,8.1C628.4,486.2,628.4,486.3,628.5,486.5z M622.2,516.3
				c2.3,0,4.7,0,7,0c4.4,0,8.8,0,13.2,0c2.9,0,5.4-2,6.3-4.8c0.9-2.8,0-5.9-2.3-7.7c-1.3-1-2.8-1.5-4.5-1.6c-1.6,0-2.3-1.1-2.1-2.6
				c0.1-1,0.2-2,0-3c-1-5.2-6.5-7.9-11.4-5.7c-1.5,0.7-2.6,0.2-3.1-1.3c-1.8-5.2-6.7-8.3-12.2-7.6c-5.6,0.7-10,6.1-9.5,11.7
				c0.1,1.5-0.6,2.3-2,2.5c-6,0.6-10.2,6.5-8.8,12.4c1.1,4.7,5.1,7.8,10,7.8C609.3,516.3,615.8,516.3,622.2,516.3z"/>
			<path d="M628.1,535.5c-1.7,0-2.6-1.5-2-2.9c0.5-1.2,1.1-2.3,1.7-3.4c0.8-1.5,1.5-3,2.3-4.6c0.6-1.2,1.7-1.6,2.8-1.1
				c1,0.5,1.4,1.7,0.8,2.9c-1.3,2.6-2.6,5.2-3.9,7.8C629.4,535,628.8,535.4,628.1,535.5z"/>
			<path d="M597.7,525.4c-0.1,0.3-0.2,0.7-0.3,1.1c-1.3,2.6-2.6,5.2-3.9,7.7c-0.6,1.2-1.7,1.6-2.8,1.1s-1.4-1.7-0.8-2.9
				c1.3-2.6,2.6-5.2,3.9-7.8c0.5-0.9,1.4-1.3,2.3-1.1S597.6,524.4,597.7,525.4z"/>
			<path d="M610,535.5c-1.7,0-2.7-1.5-2-2.9c0.7-1.5,1.4-2.9,2.2-4.3c0.6-1.2,1.2-2.4,1.8-3.5c0.6-1.2,1.8-1.6,2.8-1.1
				s1.4,1.7,0.8,2.9c-1.3,2.6-2.6,5.2-3.9,7.7C611.3,535,610.7,535.4,610,535.5z"/>
			<path d="M646.3,535.5c-1.7,0-2.6-1.5-2-2.9c0.6-1.3,1.3-2.6,1.9-3.8c0.7-1.4,1.4-2.8,2.1-4.1c0.6-1.2,1.7-1.6,2.8-1
				c1,0.5,1.4,1.7,0.8,2.9c-1.3,2.6-2.6,5.2-3.9,7.7C647.6,535,647,535.5,646.3,535.5z"/>
		</g>
		<g id="jam_00000150790856762802760290000003080677506194896272_">
			<path d="M602.4,545c-1.5-0.6-2.1-1.8-2-3.4c0.1-1,0-2,0-3c-0.5-0.2-1.1-0.4-1.5-0.6c-0.8-0.5-1.1-1.2-1.1-2.2c0-0.8,0-1.7,0-2.5
				c-1.3,0-2.6,0-3.9,0c0,0.2,0,0.5,0,0.7c0,1,0,2.1,0,3.1c0,1.5-1.1,2.6-2.6,2.7c-1.7,0-3.5,0-5.2,0c-1.5,0-2.6-1.1-2.6-2.7
				c0-1.2,0-2.5,0-3.5c-0.8-0.5-1.5-0.9-2.1-1.4c-0.6-0.6-0.5-1.5-0.5-2.3c0-2.7,0-5.4,0-8.1c0-3.3,1.9-5.7,5.1-6.6
				c0.3-0.1,0.6-0.4,0.7-0.7c0.9-2.7,1.8-5.4,2.7-8c0.8-2.3,2-3.2,4.4-3.2c6.3,0,12.6,0,18.9,0c2.1,0,3.4,0.9,4.1,3
				c0.2,0.5,0.4,1,0.5,1.5c0.1,0.6,0.4,0.8,1,0.8c1.4,0,2.8,0,4.1,0c0,0,0.1,0,0.2,0c0.3-0.8,0.5-1.6,0.8-2.4c0.6-1.8,2-2.8,3.9-2.8
				c6.5,0,13,0,19.5,0c2,0,3.3,1,4,2.9c0.9,2.8,1.8,5.5,2.8,8.3c0.2,0.5,0.3,0.7,0.9,0.9c2.5,0.7,4,2.3,4.7,4.7
				c0,0.2,0.1,0.4,0.2,0.6c0,3.6,0,7.2,0,10.7c-0.5,1.2-1.3,2-2.6,2c0,1.3,0,2.5,0,3.8c0,1.6-1.1,2.7-2.7,2.7c-1.7,0-3.4,0-5.1,0
				c-1.6,0-2.7-1.1-2.7-2.7c0-1,0-2,0-3c0-0.3,0-0.5,0-0.8c-1.3,0-2.6,0-3.9,0c0,0.8,0.1,1.6,0,2.4c-0.1,0.6-0.2,1.4-0.6,1.8
				c-0.5,0.5-1.2,0.8-2,1.3c0,0.8-0.1,1.8,0,2.9c0.1,1.6-0.5,2.8-2,3.4c-2.2,0-4.3,0-6.4,0c-1.5-0.6-2.2-1.7-2-3.3
				c0.1-1.1,0-2.1,0-3.2c-6.2,0-12.2,0-18.3,0c0,1.1-0.1,2.2,0,3.2c0.1,1.6-0.5,2.7-2,3.3C606.7,545,604.6,545,602.4,545z
				 M639.7,535.8c0-0.2,0-0.4,0-0.5c0-2.8,0-5.6,0-8.4c0-2.4-1.7-4-4.1-4c-10.4,0-20.7,0-31.1,0c-2.4,0-4.1,1.7-4.1,4.1
				c0,1.8,0,3.5,0,5.3c0,1.2,0,2.4,0,3.6C613.5,535.8,626.6,535.8,639.7,535.8z M606.2,520.2c9.3,0,18.4,0,27.7,0c0-0.1,0-0.2,0-0.3
				c-0.9-2.6-1.7-5.2-2.6-7.8c-0.2-0.8-0.8-1-1.6-1c-6.4,0-12.8,0-19.2,0c-1,0-1.3,0.3-1.7,1.2c-0.7,2-1.4,4.1-2,6.1
				C606.6,518.9,606.4,519.5,606.2,520.2z M651,515c-1-2.9-1.9-5.6-2.8-8.3c-0.2-0.6-0.8-0.8-1.4-0.8c-1.9,0-3.9,0-5.8,0
				c-4.5,0-8.9,0-13.4,0c-0.6,0-1.2,0.1-1.5,0.7c-0.2,0.6-0.4,1.2-0.7,1.9c1.5,0,3,0,4.5,0c1.9,0,3.3,1,3.9,2.8c0.3,1,0.7,2,1,3.1
				c0.2,0.6,0.4,0.7,1,0.7c4.8,0,9.6,0,14.3,0C650.3,515,650.6,515,651,515z M614.7,508.4c-0.2-0.5-0.3-1-0.5-1.5
				c-0.3-0.9-0.7-1.2-1.6-1.2c-6.4,0-12.8,0-19.2,0c-1,0-1.3,0.3-1.6,1.2c-0.7,2.2-1.5,4.4-2.2,6.5c-0.2,0.5-0.3,0.9-0.5,1.4
				c5.4,0,10.6,0,16,0c0.4-1.1,0.8-2.2,1.1-3.4c0.7-2.2,2-3.1,4.3-3.1C612,508.4,613.3,508.4,614.7,508.4z M656.7,530.6
				c0-3,0-5.8,0-8.7c0-2.7-1.6-4.3-4.3-4.3c-5.2,0-10.5,0-15.7,0c-0.2,0-0.5,0-0.8,0c0.2,0.8,0.5,1.4,0.7,2c0.1,0.5,0.4,0.6,0.8,0.6
				c1.6,0,3.3,0,4.9,0c0.8,0,1.3,0.5,1.4,1.2c0,0.8-0.5,1.3-1.3,1.4c-0.4,0-0.8,0-1.1,0c0.3,0.8,0.7,1.6,1,2.4
				c0.1,0.2,0.3,0.2,0.5,0.3c0.8,0.3,1.2,1.1,0.8,1.8c-0.2,0.4-0.7,0.7-1.1,1c0,0.7,0,1.5,0,2.3
				C647.1,530.6,651.8,530.6,656.7,530.6z M599,522.8c-0.3,0-0.6,0-0.8,0c-1,0-1.6-0.5-1.6-1.3s0.6-1.3,1.6-1.3c1.6,0,3.1,0,4.7,0
				c0.2,0,0.6-0.2,0.7-0.4c0.3-0.7,0.5-1.4,0.8-2.2c-0.3,0-0.5,0-0.8,0c-5.3,0-10.6,0-15.9,0c-2.5,0-4.2,1.6-4.2,4.2
				c0,2.7,0,5.4,0,8.1c0,0.2,0,0.5,0,0.7c4.9,0,9.6,0,14.4,0c0-0.9,0-1.7,0-2.5c-0.7-0.2-1.3-0.6-1.3-1.4c0-0.7,0.5-1.2,1.2-1.3
				c0.1,0,0.3-0.2,0.3-0.3C598.3,524.4,598.6,523.6,599,522.8z M591.2,533.3c-1.8,0-3.5,0-5.2,0c0,1.3,0,2.5,0,3.8
				c1.7,0,3.4,0,5.2,0C591.2,535.9,591.2,534.6,591.2,533.3z M654,537.2c0-1.3,0-2.6,0-3.9c-1.7,0-3.4,0-5.1,0c0,1.3,0,2.6,0,3.9
				C650.6,537.2,652.3,537.2,654,537.2z M608.2,542.4c0-1.3,0-2.6,0-3.8c-1.7,0-3.4,0-5.1,0c0,1.3,0,2.6,0,3.8
				C604.8,542.4,606.5,542.4,608.2,542.4z M637,542.4c0-1.3,0-2.6,0-3.8c-1.7,0-3.4,0-5.1,0c0,1.3,0,2.6,0,3.8
				C633.6,542.4,635.3,542.4,637,542.4z"/>
			<path d="M620,500.6c-5.4,0-10.9,0-16.3,0c-1.8,0-3.2-0.6-4-2.1c-0.9-1.6-0.6-3.1,0.4-4.6c5.5-8.4,10.9-16.7,16.4-25.1
				c2-3,5.3-3,7.2,0c5.5,8.4,11,16.8,16.4,25.1c1.3,2,1.1,4.2-0.5,5.7c-0.8,0.8-1.8,1-3,1C631.1,500.6,625.5,500.6,620,500.6z
				 M620,498c5.4,0,10.9,0,16.3,0c0.7,0,1.4,0,1.8-0.8c0.4-0.7,0.1-1.4-0.3-2c-5.5-8.3-10.9-16.7-16.3-25c-0.9-1.4-2-1.4-2.9,0
				c-5.5,8.4-10.9,16.7-16.4,25.1c-0.4,0.6-0.7,1.2-0.3,1.9c0.4,0.7,1.1,0.8,1.8,0.8C609.2,498,614.6,498,620,498z"/>
			<path d="M633.1,533.3c-2.2,0-3.9-1.7-3.9-3.9s1.7-4,3.9-4c2.1,0,3.9,1.8,3.9,3.9C637.1,531.5,635.3,533.3,633.1,533.3z
				 M634.4,529.4c0-0.7-0.6-1.3-1.3-1.3s-1.3,0.6-1.3,1.3s0.5,1.3,1.3,1.3C633.8,530.7,634.4,530.1,634.4,529.4z"/>
			<path d="M610.9,529.3c0,2.2-1.7,3.9-3.8,3.9c-2.2,0-4-1.7-4-3.9s1.8-4,3.9-4C609.1,525.4,610.9,527.2,610.9,529.3z M608.2,529.3
				c0-0.7-0.6-1.3-1.3-1.3s-1.2,0.6-1.2,1.3s0.6,1.3,1.3,1.3S608.3,530,608.2,529.3z"/>
			<path d="M620,528c-1.7,0-3.3,0-5,0c-0.9,0-1.5-0.5-1.5-1.3s0.6-1.3,1.5-1.3c3.3,0,6.7,0,10,0c0.9,0,1.5,0.5,1.5,1.3
				s-0.6,1.3-1.5,1.3C623.4,528,621.7,528,620,528z"/>
			<path d="M620,533.3c-1.7,0-3.3,0-5,0c-1,0-1.6-0.5-1.6-1.3s0.6-1.3,1.6-1.3c3.3,0,6.6,0,10,0c1,0,1.6,0.5,1.6,1.3
				s-0.6,1.3-1.6,1.3C623.4,533.3,621.7,533.3,620,533.3z"/>
			<path d="M646.2,524.1c0-2.2,1.7-3.9,3.8-3.9c2.2,0,4,1.7,4,3.9s-1.8,4-3.9,3.9C648,528,646.2,526.3,646.2,524.1z M651.5,524.1
				c0-0.7-0.6-1.3-1.4-1.3c-0.7,0-1.3,0.6-1.2,1.4c0,0.7,0.6,1.2,1.3,1.2C650.9,525.4,651.5,524.8,651.5,524.1z"/>
			<path d="M593.9,524.1c0,2.2-1.7,3.9-3.8,4c-2.2,0-4-1.7-4-3.9s1.8-4,3.9-4C592.1,520.2,593.8,521.9,593.9,524.1z M589.9,522.8
				c-0.7,0-1.3,0.7-1.3,1.3c0,0.7,0.6,1.2,1.3,1.2s1.3-0.6,1.3-1.3C591.2,523.4,590.7,522.8,589.9,522.8z"/>
			<path d="M618.7,482.2c0-1.5,0-3,0-4.5c0-0.2,0-0.4,0-0.6c0.1-0.8,0.5-1.3,1.3-1.3c0.7,0,1.3,0.5,1.3,1.3c0,3.5,0,6.9,0,10.4
				c0,0.8-0.6,1.3-1.3,1.3c-0.8,0-1.3-0.5-1.3-1.4C618.7,485.6,618.7,483.9,618.7,482.2L618.7,482.2z"/>
			<path d="M620,491.4c0.7,0,1.3,0.6,1.3,1.3c0,0.7-0.5,1.3-1.2,1.3s-1.3-0.5-1.3-1.2C618.7,492,619.3,491.4,620,491.4z"/>
		</g>
	</g>
	<g id="icon_x5F_k">
		<g id="acc">
			<path d="M972.9,295.4c-0.8,3-1.6,6-2.4,8.9c-0.4,1.4-0.8,2.9-1.2,4.3c-0.2,0.9-0.7,1.1-1.5,0.9c-1.5-0.4-2.9-0.8-4.4-1.2
				c-0.8-0.2-1-0.6-0.8-1.4c0.2-0.9,0.5-1.9,0.8-2.9c-1.4-0.4-2.7-0.7-4.1-1.1c-6.5-1.7-13-3.5-19.5-5.2c-0.5-0.1-0.7-0.4-0.7-0.9
				c0-1.2-0.1-2.3-0.1-3.6c1.2-0.3,2.3-0.9,2.7-2.3c0.2-0.8,0.2-1.6-0.3-2.4c-1-1.8-2.7-2.1-5-0.9c-0.7-1.5-1.4-3-2.1-4.4
				c-0.1-0.2,0-0.5,0.2-0.6c3.2-3.7,6.4-7.5,9.6-11.2c1.4-1.6,3.3-2.1,5.4-1.6c5.5,1.4,11,2.8,16.5,4.2c2.3,0.6,3.6,2.1,4.1,4.5
				c0.9,4.9,1.8,9.8,2.7,14.6c0,0.1,0.1,0.1,0.1,0.2C972.9,294.1,972.9,294.8,972.9,295.4z M968.4,291.3c-0.2-1.2-0.4-2.2-0.6-3.2
				c-0.5-2.5-1-5.1-1.5-7.6c-0.2-1-0.9-1.7-1.8-2c-0.4-0.1-0.8-0.3-1.2-0.4c-4.3-1.2-8.6-2.3-12.8-3.5c-1.9-0.5-3.3-0.1-4.6,1.4
				c-1.8,2.2-3.7,4.3-5.5,6.4c-0.3,0.4-0.6,0.7-1,1.1C949.1,286.1,958.7,288.7,968.4,291.3z M968.9,297.6c0-1.8-1.4-3.2-3.2-3.2
				c-1.9,0-3.2,1.3-3.2,3.2c0,1.7,1.4,3.2,3.1,3.2C967.4,300.8,968.9,299.3,968.9,297.6z"/>
			<path d="M930.6,305.9c-9.1,0-18.1,0-27.3,0c0,0.9,0,1.9,0,2.8c0,1.1-0.3,1.4-1.4,1.4c-1.5,0-2.9,0-4.3,0c-1,0-1.3-0.3-1.3-1.3
				c0-4.3,0-8.6,0-12.9c0-1.3,0.3-2.5,0.9-3.6c2.1-4.3,4.1-8.7,6.2-13c1-2,2.6-3,4.8-3c5.8,0,11.6,0,17.4,0c2.3,0,4,1.1,5,3.1
				c2.1,4.3,4.1,8.6,6.2,12.9c0.6,1.3,0.9,2.6,0.9,4c0,4.1,0,8.3,0,12.4c0,1.1-0.3,1.4-1.4,1.4c-1.5,0-2.9,0-4.3,0
				c-1,0-1.3-0.3-1.3-1.3C930.5,307.8,930.6,306.9,930.6,305.9z M931.8,291.9c-1-2.1-1.9-4.1-2.9-6.1c-0.6-1.3-1.3-2.6-1.9-3.9
				c-0.4-0.8-1.2-1.2-2.1-1.3c-0.7,0-1.3-0.1-1.9-0.1c-4.3,0-8.5,0-12.8,0c-1.9,0-3.1,0.7-3.9,2.5c-1.3,2.8-2.6,5.5-4,8.3
				c-0.1,0.2-0.2,0.4-0.2,0.7C912,291.9,921.8,291.9,931.8,291.9z M899.7,298.6c0,1.8,1.4,3.2,3.1,3.3c1.7,0,3.3-1.5,3.3-3.2
				s-1.5-3.1-3.2-3.2C901.1,295.4,899.7,296.8,899.7,298.6z M927.8,298.6c0,1.8,1.4,3.2,3.1,3.3c1.8,0,3.2-1.5,3.2-3.2
				s-1.4-3.1-3.2-3.1C929.2,295.4,927.8,296.8,927.8,298.6z"/>
			<path d="M934.3,276.8c-0.3-2.4-0.6-4.8-0.9-7.2c-0.2-1.9-0.5-3.7-0.7-5.6s0-2.1,1.8-2.1c0.1,0,0.2,0,0.4,0c1.1,0,1.5,0.4,1.3,1.5
				c-0.2,1.6-0.4,3.2-0.6,4.8c-0.3,2.7-0.7,5.4-1,8.2C934.5,276.5,934.5,276.7,934.3,276.8C934.4,276.8,934.3,276.8,934.3,276.8z"/>
			<path d="M931.9,277.1c-1.8-2.4-3.6-4.8-5.4-7.1c-0.1-0.2-0.3-0.3-0.4-0.5c-0.2-0.4-0.6-1.1-0.4-1.3c0.4-0.5,1-0.8,1.6-1
				s0.8,0.5,1,0.9c1.1,2.7,2.2,5.3,3.3,8C931.7,276.4,931.9,276.8,931.9,277.1C932,277.1,931.9,277.1,931.9,277.1z"/>
			<path d="M937,276c0.1-0.2,0.1-0.4,0.2-0.6c1.2-2.8,2.3-5.6,3.5-8.3c0.4-0.9,0.5-1,1.4-0.5c1.6,0.8,1.7,0.9,0.5,2.4
				c-1.7,2.2-3.4,4.4-5.1,6.7c-0.1,0.2-0.3,0.4-0.4,0.5C937,276,937,276,937,276z"/>
		</g>
		<g id="rain_00000100369720148961046660000008837876308410976677_">
			<path d="M932.1,318.5c-0.1-0.1-0.2-0.1-0.3-0.2c-1.1-0.5-1.5-1.6-1-2.7c1.3-2.7,2.7-5.4,4.1-8.1c0.5-1,1.7-1.4,2.7-0.9
				s1.4,1.6,0.9,2.6c-1.3,2.7-2.7,5.5-4.1,8.2c-0.2,0.5-0.8,0.7-1.2,1.1C932.8,318.5,932.4,318.5,932.1,318.5z"/>
			<path d="M950.3,318.5c-1.6-0.8-1.9-1.8-1.1-3.4c1.2-2.5,2.5-5,3.8-7.5c0.5-1,1.4-1.4,2.3-1.2c1.2,0.3,2,1.6,1.4,2.7
				c-1.3,2.8-2.8,5.6-4.2,8.3c-0.2,0.4-0.8,0.7-1.2,1C951,318.5,950.6,318.5,950.3,318.5z"/>
			<path d="M913.9,318.5c-0.1-0.1-0.2-0.2-0.4-0.2c-1-0.5-1.4-1.6-0.9-2.6c1.3-2.7,2.7-5.5,4.1-8.2c0.5-1,1.7-1.3,2.7-0.9
				c1,0.5,1.4,1.6,1,2.6c-1.3,2.8-2.7,5.5-4.1,8.2c-0.2,0.5-0.8,0.7-1.3,1.1C914.5,318.5,914.2,318.5,913.9,318.5z"/>
			<path d="M945.3,262.5c2.5-0.7,5-0.7,7.4,0.2c4.7,1.7,7.8,5.9,8.1,11c0,0.5,0.1,0.6,0.6,0.8c5.1,1.2,8.7,6,8.5,11.1
				c-0.2,5.4-4.1,9.8-9.4,10.6c-0.7,0.1-1.3,0.1-2,0.1c-12.9,0-25.9,0-38.8,0c-7,0-12.7-4.6-14.1-11.4c-1.5-7.2,3-14.4,10-16.3
				c0.6-0.2,0.8-0.4,0.9-1c0.4-6.6,5.8-12.4,12.3-13.5c6.8-1.1,13,1.9,16.3,8.1C945.2,262.2,945.2,262.3,945.3,262.5z M939,292.3
				c2.3,0,4.7,0,7,0c4.4,0,8.8,0,13.2,0c2.9,0,5.4-2,6.3-4.8c0.9-2.8,0-5.9-2.3-7.7c-1.3-1-2.8-1.5-4.5-1.6c-1.6,0-2.3-1.1-2.1-2.6
				c0.1-1,0.2-2,0-3c-1-5.2-6.5-7.9-11.4-5.7c-1.5,0.7-2.6,0.2-3.1-1.3c-1.8-5.2-6.7-8.3-12.2-7.6c-5.6,0.7-10,6.1-9.5,11.7
				c0.1,1.5-0.6,2.3-2,2.5c-6,0.6-10.2,6.5-8.8,12.4c1.1,4.7,5.1,7.8,10,7.8C926.1,292.3,932.5,292.3,939,292.3z"/>
			<path d="M944.9,311.5c-1.7,0-2.6-1.5-2-2.9c0.5-1.1,1.1-2.3,1.7-3.4c0.8-1.5,1.5-3,2.3-4.6c0.6-1.2,1.7-1.6,2.8-1.1
				c1,0.5,1.4,1.7,0.8,2.9c-1.3,2.6-2.6,5.2-3.9,7.8C946.2,311,945.6,311.4,944.9,311.5z"/>
			<path d="M914.5,301.4c-0.1,0.4-0.2,0.7-0.3,1.1c-1.3,2.6-2.6,5.2-3.9,7.7c-0.6,1.2-1.7,1.6-2.8,1.1s-1.4-1.7-0.8-2.9
				c1.3-2.6,2.6-5.2,3.9-7.8c0.5-0.9,1.4-1.3,2.3-1.1C913.8,299.6,914.4,300.4,914.5,301.4z"/>
			<path d="M926.7,311.5c-1.7,0-2.7-1.5-2-2.9c0.7-1.5,1.4-2.9,2.2-4.4c0.6-1.2,1.2-2.4,1.8-3.5c0.6-1.2,1.8-1.6,2.8-1.1
				s1.4,1.7,0.8,2.9c-1.3,2.6-2.6,5.1-3.9,7.7C928,311,927.4,311.4,926.7,311.5z"/>
			<path d="M963.1,311.5c-1.7,0-2.6-1.5-2-2.9c0.6-1.3,1.3-2.6,1.9-3.8c0.7-1.4,1.4-2.8,2.1-4.1c0.6-1.2,1.7-1.6,2.8-1
				c1,0.5,1.4,1.7,0.8,2.9c-1.3,2.6-2.6,5.1-3.9,7.7C964.4,311,963.8,311.4,963.1,311.5z"/>
		</g>
		<g id="jam_00000178901208825549496840000007614284272559384489_">
			<path d="M917,318.2c-1.5-0.6-2.1-1.8-2-3.4c0.1-1,0-2,0-3c-0.5-0.2-1.1-0.4-1.5-0.6c-0.8-0.5-1.1-1.2-1.1-2.1c0-0.8,0-1.7,0-2.5
				c-1.3,0-2.6,0-3.9,0c0,0.2,0,0.5,0,0.7c0,1,0,2.1,0,3.1c0,1.5-1.1,2.6-2.6,2.6c-1.7,0-3.5,0-5.2,0c-1.5,0-2.6-1.1-2.6-2.7
				c0-1.2,0-2.5,0-3.5c-0.8-0.5-1.5-0.9-2.1-1.4c-0.6-0.6-0.5-1.5-0.5-2.3c0-2.7,0-5.4,0-8.1c0-3.3,1.9-5.7,5.1-6.6
				c0.3-0.1,0.6-0.4,0.7-0.7c0.9-2.7,1.8-5.4,2.7-8c0.8-2.3,2-3.2,4.4-3.2c6.3,0,12.6,0,18.9,0c2.1,0,3.4,0.9,4.1,3
				c0.2,0.5,0.4,1,0.5,1.5c0.1,0.6,0.4,0.8,1,0.8c1.4,0,2.8,0,4.1,0c0,0,0.1,0,0.2,0c0.3-0.8,0.5-1.6,0.8-2.4c0.6-1.8,2-2.8,3.9-2.8
				c6.5,0,13,0,19.5,0c2,0,3.3,1,4,2.9c0.9,2.8,1.8,5.5,2.8,8.3c0.2,0.5,0.3,0.7,0.9,0.9c2.5,0.7,4,2.3,4.7,4.7
				c0,0.2,0.1,0.4,0.2,0.6c0,3.6,0,7.2,0,10.7c-0.5,1.2-1.3,2-2.6,2c0,1.3,0,2.5,0,3.8c0,1.6-1.1,2.7-2.7,2.7c-1.7,0-3.4,0-5.1,0
				c-1.6,0-2.7-1.1-2.7-2.7c0-1,0-2,0-3c0-0.3,0-0.5,0-0.8c-1.3,0-2.6,0-3.9,0c0,0.8,0.1,1.6,0,2.4c-0.1,0.6-0.2,1.4-0.6,1.8
				c-0.5,0.5-1.2,0.8-2,1.3c0,0.8-0.1,1.9,0,2.9c0.1,1.6-0.5,2.8-2,3.4c-2.2,0-4.3,0-6.4,0c-1.5-0.6-2.2-1.7-2-3.3
				c0.1-1.1,0-2.1,0-3.2c-6.2,0-12.2,0-18.3,0c0,1.1-0.1,2.2,0,3.2c0.1,1.6-0.5,2.7-2,3.3C921.3,318.2,919.1,318.2,917,318.2z
				 M954.2,309c0-0.2,0-0.4,0-0.5c0-2.8,0-5.6,0-8.4c0-2.4-1.7-4-4.1-4c-10.4,0-20.7,0-31.1,0c-2.4,0-4.1,1.7-4.1,4.1
				c0,1.8,0,3.5,0,5.3c0,1.2,0,2.4,0,3.6C928.1,309,941.1,309,954.2,309z M920.8,293.3c9.3,0,18.4,0,27.7,0c0-0.1,0-0.2,0-0.3
				c-0.9-2.6-1.7-5.2-2.6-7.8c-0.2-0.8-0.8-1-1.6-1c-6.4,0-12.8,0-19.2,0c-1,0-1.3,0.3-1.7,1.2c-0.7,2-1.4,4.1-2,6.1
				C921.2,292.1,921,292.7,920.8,293.3z M965.5,288.1c-1-2.9-1.9-5.6-2.8-8.3c-0.2-0.6-0.8-0.8-1.4-0.8c-1.9,0-3.9,0-5.8,0
				c-4.5,0-8.9,0-13.4,0c-0.6,0-1.2,0.1-1.5,0.7c-0.2,0.6-0.4,1.2-0.7,1.9c1.5,0,3,0,4.5,0c1.9,0,3.3,1,3.9,2.8c0.3,1,0.7,2,1,3
				c0.2,0.6,0.4,0.7,1,0.7c4.8,0,9.6,0,14.3,0C964.9,288.1,965.1,288.1,965.5,288.1z M929.3,281.6c-0.2-0.5-0.3-1-0.5-1.5
				c-0.3-0.9-0.7-1.2-1.6-1.2c-6.4,0-12.8,0-19.2,0c-1,0-1.3,0.3-1.6,1.2c-0.7,2.2-1.5,4.4-2.2,6.5c-0.2,0.5-0.3,0.9-0.5,1.4
				c5.4,0,10.6,0,16,0c0.4-1.1,0.8-2.2,1.1-3.4c0.7-2.2,2-3.1,4.3-3.1C926.5,281.6,927.9,281.6,929.3,281.6z M971.3,303.8
				c0-3,0-5.8,0-8.7c0-2.7-1.6-4.3-4.3-4.3c-5.2,0-10.5,0-15.7,0c-0.2,0-0.5,0-0.8,0c0.2,0.8,0.5,1.4,0.7,2c0.1,0.5,0.4,0.6,0.8,0.6
				c1.6,0,3.3,0,4.9,0c0.8,0,1.3,0.5,1.4,1.2c0,0.8-0.5,1.3-1.3,1.4c-0.4,0-0.8,0-1.1,0c0.3,0.8,0.7,1.6,1,2.4
				c0.1,0.1,0.3,0.2,0.5,0.3c0.8,0.3,1.2,1.1,0.8,1.8c-0.2,0.4-0.7,0.6-1.1,1c0,0.7,0,1.5,0,2.3
				C961.7,303.8,966.4,303.8,971.3,303.8z M913.6,296c-0.3,0-0.6,0-0.8,0c-1,0-1.6-0.5-1.6-1.3s0.6-1.3,1.6-1.3c1.6,0,3.1,0,4.7,0
				c0.2,0,0.6-0.2,0.7-0.4c0.3-0.7,0.5-1.4,0.8-2.2c-0.3,0-0.5,0-0.8,0c-5.3,0-10.6,0-15.9,0c-2.5,0-4.2,1.6-4.2,4.2
				c0,2.7,0,5.4,0,8.1c0,0.2,0,0.5,0,0.7c4.9,0,9.6,0,14.4,0c0-0.9,0-1.7,0-2.5c-0.7-0.2-1.3-0.6-1.3-1.4c0-0.7,0.5-1.1,1.2-1.3
				c0.1,0,0.3-0.2,0.3-0.3C912.9,297.5,913.2,296.8,913.6,296z M905.8,306.5c-1.8,0-3.5,0-5.2,0c0,1.3,0,2.5,0,3.8
				c1.7,0,3.4,0,5.2,0C905.8,309,905.8,307.8,905.8,306.5z M968.6,310.3c0-1.4,0-2.6,0-3.9c-1.7,0-3.4,0-5.1,0c0,1.3,0,2.6,0,3.9
				C965.2,310.3,966.9,310.3,968.6,310.3z M922.8,315.6c0-1.3,0-2.6,0-3.9c-1.7,0-3.4,0-5.1,0c0,1.3,0,2.6,0,3.9
				C919.4,315.6,921.1,315.6,922.8,315.6z M951.6,315.6c0-1.3,0-2.6,0-3.9c-1.7,0-3.4,0-5.1,0c0,1.3,0,2.6,0,3.9
				C948.2,315.6,949.9,315.6,951.6,315.6z"/>
			<path d="M934.6,273.7c-5.4,0-10.9,0-16.3,0c-1.8,0-3.2-0.6-4-2.1c-0.9-1.6-0.6-3.1,0.4-4.6c5.5-8.4,10.9-16.7,16.4-25.1
				c2-3,5.3-3,7.2,0c5.5,8.4,11,16.8,16.4,25.1c1.3,2,1.1,4.2-0.5,5.7c-0.8,0.8-1.8,1-3,1C945.7,273.7,940.1,273.7,934.6,273.7z
				 M934.6,271.1c5.4,0,10.9,0,16.3,0c0.7,0,1.4,0,1.8-0.8c0.4-0.7,0.1-1.4-0.3-2c-5.5-8.3-10.9-16.7-16.3-25c-0.9-1.4-2-1.4-2.9,0
				c-5.5,8.4-10.9,16.7-16.4,25.1c-0.4,0.6-0.7,1.2-0.3,1.9c0.4,0.7,1.1,0.8,1.8,0.8C923.7,271.1,929.2,271.1,934.6,271.1z"/>
			<path d="M947.7,306.4c-2.2,0-3.9-1.7-3.9-3.9c0-2.2,1.7-4,3.9-4c2.1,0,3.9,1.8,3.9,3.9C951.7,304.6,949.9,306.4,947.7,306.4z
				 M949,302.5c0-0.7-0.6-1.3-1.3-1.3s-1.3,0.6-1.3,1.3c0,0.7,0.5,1.3,1.3,1.3C948.4,303.8,949,303.2,949,302.5z"/>
			<path d="M925.5,302.5c0,2.2-1.7,3.9-3.8,3.9c-2.2,0-4-1.7-4-3.9c0-2.2,1.8-4,3.9-4C923.7,298.6,925.4,300.3,925.5,302.5z
				 M922.8,302.5c0-0.7-0.6-1.3-1.3-1.3s-1.2,0.6-1.2,1.3c0,0.7,0.6,1.3,1.3,1.3S922.8,303.2,922.8,302.5z"/>
			<path d="M934.6,301.2c-1.7,0-3.3,0-5,0c-0.9,0-1.5-0.5-1.5-1.3s0.6-1.3,1.5-1.3c3.3,0,6.7,0,10,0c0.9,0,1.5,0.5,1.5,1.3
				s-0.6,1.3-1.5,1.3C938,301.2,936.3,301.2,934.6,301.2z"/>
			<path d="M934.6,306.4c-1.7,0-3.3,0-5,0c-1,0-1.6-0.5-1.6-1.3s0.6-1.3,1.6-1.3c3.3,0,6.6,0,10,0c1,0,1.6,0.5,1.6,1.3
				s-0.6,1.3-1.6,1.3C938,306.4,936.3,306.4,934.6,306.4z"/>
			<path d="M960.8,297.3c0-2.2,1.7-3.9,3.8-3.9c2.2,0,4,1.7,4,3.9c0,2.2-1.8,4-3.9,3.9C962.5,301.2,960.8,299.5,960.8,297.3z
				 M966,297.2c0-0.7-0.6-1.3-1.4-1.3c-0.7,0-1.3,0.6-1.2,1.4c0,0.7,0.6,1.2,1.3,1.2C965.4,298.6,966,297.9,966,297.2z"/>
			<path d="M908.4,297.2c0,2.2-1.7,3.9-3.8,4c-2.2,0-4-1.7-4-3.9c0-2.2,1.8-4,3.9-4C906.7,293.4,908.4,295.1,908.4,297.2z
				 M904.5,296c-0.7,0-1.3,0.6-1.3,1.4c0,0.7,0.6,1.2,1.3,1.2s1.3-0.6,1.3-1.3C905.8,296.5,905.2,296,904.5,296z"/>
			<path d="M933.3,255.3c0-1.5,0-3,0-4.5c0-0.2,0-0.4,0-0.6c0.1-0.8,0.5-1.3,1.3-1.3s1.3,0.5,1.3,1.3c0,3.5,0,6.9,0,10.4
				c0,0.8-0.6,1.3-1.3,1.3c-0.8,0-1.3-0.5-1.3-1.4C933.3,258.8,933.3,257.1,933.3,255.3L933.3,255.3z"/>
			<path d="M934.6,264.5c0.7,0,1.3,0.6,1.3,1.3c0,0.7-0.5,1.3-1.2,1.3s-1.3-0.5-1.3-1.2C933.3,265.2,933.9,264.6,934.6,264.5z"/>
		</g>
	</g>
</g>
</svg>
