<?xml version="1.0" encoding="utf-8"?>
<!-- Generator: Adobe Illustrator 25.0.1, SVG Export Plug-In . SVG Version: 6.00 Build 0)  -->
<svg version="1.1" id="圖層_1" xmlns="http://www.w3.org/2000/svg" xmlns:xlink="http://www.w3.org/1999/xlink" x="0px" y="0px"
	 viewBox="0 0 682.7 682.7" style="enable-background:new 0 0 682.7 682.7;" xml:space="preserve">
<style type="text/css">
	.st0{fill:#FFFFFF;}
</style>
<path class="st0" d="M645,0H37.7C16.9,0,0,16.9,0,37.7V645c0,20.8,16.9,37.7,37.7,37.7h327v-264H276V315.3h88.7v-76
	c0-88.2,53.8-136.2,132.5-136.2c37.7,0,70.1,2.8,79.5,4.1v92.2h-54.2c-42.8,0-51.1,20.3-51.1,50.2v65.8h102.3l-13.3,103.3h-89v264
	H645c20.8,0,37.7-16.9,37.7-37.7c0,0,0,0,0,0V37.7C682.7,16.9,665.8,0,645,0z"/>
</svg>
