<?xml version="1.0" encoding="utf-8"?>
<!-- Generator: Adobe Illustrator 25.0.1, SVG Export Plug-In . SVG Version: 6.00 Build 0)  -->
<svg version="1.1" id="Capa_1" xmlns="http://www.w3.org/2000/svg" xmlns:xlink="http://www.w3.org/1999/xlink" x="0px" y="0px"
	 viewBox="0 0 703 703" style="enable-background:new 0 0 703 703;" xml:space="preserve">
<style type="text/css">
	.st0{fill:#FFFFFF;}
</style>
<path class="st0" d="M351.4,19C157.3,19,0,144.1,0,298.5c0,141.9,132.9,259.1,305.1,277.1c10.5,1.1,18.1,10.6,17,21.1l-7.3,66
	c-1.7,15,13.8,25.9,27.4,19.3c145.5-70.2,232.5-142.4,284.4-205c9.5-11.4,40.3-54.6,46.6-65.9c13.3-24.1,22.5-49.9,26.9-77
	c1.6-8.5,2.4-15.7,2.8-21.3c0.6-9.3-0.1-23-0.3-27.3C693.9,137.2,540,19,351.4,19z M212.1,391.1h-71.9c-9.9,0-18-8-18-18V237.4
	c0-9.9,8-18,18-18c9.9,0,18,8,18,18v117.7h53.9c9.9,0,18,8,18,18C230.1,383,222,391.1,212.1,391.1z M283.1,377c0,7.8-6.3,14-14,14
	h-7.9c-7.8,0-14-6.3-14-14V233.5c0-7.8,6.3-14,14-14h7.9c7.8,0,14,6.3,14,14V377z M450.3,372.4c0,10-8.2,18.8-18.1,18.7
	c-4.7,0-9-1.9-12.2-4.9c-1.1-1-73.9-95.5-73.9-95.5v82.4c0,9.9-8,18-18,18c-9.9,0-18-8-18-18v-135c0-9.8,7.5-18.3,17.3-18.7
	c5.6-0.2,10.7,2.2,14.1,6c1.1,1.2,72.9,94.9,72.9,94.9v-82.9c0-9.9,8-18,18-18c9.9,0,18,8,18,18V372.4z M567.1,287.3
	c9.9,0,18,8,18,18c0,9.9-8,18-18,18h-53.9v31.9h53.9c9.9,0,18,8,18,18c0,9.9-8,18-18,18h-71.9c-9.9,0-18-8-18-18V237.4
	c0-9.9,8-18,18-18h71.9c9.9,0,18,8,18,18c0,9.9-8,18-18,18h-53.9v31.9H567.1z"/>
</svg>
